<svg width="837" height="1004" viewBox="0 0 837 1004" fill="none" xmlns="http://www.w3.org/2000/svg">
<path d="M372.176 129.5L494.75 192L665.25 704.733L372.176 853.5L85.5 704.733L244.25 191L372.176 129.5Z" fill="url(#paint0_linear_1_948)" fill-opacity="0.7"/>
<g filter="url(#filter0_d_1_948)">
<path d="M363.148 567.247C367.485 565.192 372.515 565.192 376.852 567.247L638.685 691.332C650.748 697.049 650.919 714.154 638.971 720.11L377.138 850.634C372.643 852.875 367.357 852.875 362.862 850.634L101.029 720.11C89.0814 714.154 89.2515 697.049 101.315 691.332L363.148 567.247Z" fill="#372048"/>
<path d="M363.148 567.247C367.485 565.192 372.515 565.192 376.852 567.247L638.685 691.332C650.748 697.049 650.919 714.154 638.971 720.11L377.138 850.634C372.643 852.875 367.357 852.875 362.862 850.634L101.029 720.11C89.0814 714.154 89.2515 697.049 101.315 691.332L363.148 567.247Z" stroke="url(#paint1_linear_1_948)" stroke-width="11"/>
</g>
<g filter="url(#filter1_d_1_948)">
<path d="M364.148 125.747C368.485 123.692 373.515 123.692 377.852 125.747L490.472 179.119C502.535 184.835 502.706 201.941 490.758 207.896L378.138 264.038C373.643 266.279 368.357 266.279 363.862 264.038L251.242 207.896C239.294 201.941 239.465 184.835 251.528 179.119L364.148 125.747Z" fill="url(#paint2_linear_1_948)" shape-rendering="crispEdges"/>
<path d="M364.148 125.747C368.485 123.692 373.515 123.692 377.852 125.747L490.472 179.119C502.535 184.835 502.706 201.941 490.758 207.896L378.138 264.038C373.643 266.279 368.357 266.279 363.862 264.038L251.242 207.896C239.294 201.941 239.465 184.835 251.528 179.119L364.148 125.747Z" stroke="url(#paint3_linear_1_948)" stroke-opacity="0.5" stroke-width="10" shape-rendering="crispEdges"/>
</g>
<path d="M289.47 385.728L275.102 432H267.326L257.214 400.384C256.937 399.616 256.681 398.677 256.446 397.568C256.318 398.101 256.19 398.603 256.062 399.072C255.934 399.541 255.795 399.979 255.646 400.384L245.438 432H237.63L223.294 385.728H230.494C231.241 385.728 231.859 385.909 232.35 386.272C232.862 386.613 233.203 387.083 233.374 387.68L241.246 415.36C241.417 416.043 241.577 416.789 241.726 417.6C241.897 418.389 242.067 419.221 242.238 420.096C242.409 419.2 242.59 418.357 242.782 417.568C242.995 416.779 243.219 416.043 243.454 415.36L252.542 387.68C252.713 387.189 253.043 386.741 253.534 386.336C254.046 385.931 254.665 385.728 255.39 385.728H257.918C258.665 385.728 259.273 385.909 259.742 386.272C260.211 386.635 260.563 387.104 260.798 387.68L269.854 415.36C270.302 416.683 270.707 418.208 271.07 419.936C271.347 418.251 271.657 416.725 271.998 415.36L279.87 387.68C279.998 387.147 280.318 386.688 280.83 386.304C281.363 385.92 281.993 385.728 282.718 385.728H289.47ZM303.792 392.576V405.408H319.984V412.032H303.792V425.12H324.336V432H295.152V385.728H324.336V392.576H303.792ZM349.277 425.28C350.877 425.28 352.221 425.088 353.309 424.704C354.397 424.32 355.261 423.808 355.901 423.168C356.562 422.528 357.031 421.781 357.309 420.928C357.607 420.075 357.757 419.168 357.757 418.208C357.757 417.205 357.597 416.309 357.277 415.52C356.957 414.709 356.455 414.027 355.773 413.472C355.09 412.896 354.205 412.459 353.117 412.16C352.05 411.861 350.759 411.712 349.245 411.712H340.573V425.28H349.277ZM340.573 392.384V405.76H347.421C350.365 405.76 352.583 405.227 354.077 404.16C355.591 403.093 356.349 401.397 356.349 399.072C356.349 396.661 355.666 394.944 354.301 393.92C352.935 392.896 350.802 392.384 347.901 392.384H340.573ZM347.901 385.728C350.93 385.728 353.522 386.016 355.677 386.592C357.831 387.168 359.591 387.989 360.957 389.056C362.343 390.123 363.357 391.413 363.997 392.928C364.637 394.443 364.957 396.149 364.957 398.048C364.957 399.136 364.797 400.181 364.477 401.184C364.157 402.165 363.655 403.093 362.972 403.968C362.311 404.821 361.458 405.6 360.413 406.304C359.389 407.008 358.162 407.605 356.733 408.096C363.09 409.525 366.269 412.96 366.269 418.4C366.269 420.363 365.895 422.176 365.149 423.84C364.402 425.504 363.314 426.944 361.885 428.16C360.455 429.355 358.695 430.293 356.605 430.976C354.514 431.659 352.125 432 349.437 432H331.965V385.728H347.901ZM372.394 398.624C372.714 396.405 373.332 394.464 374.25 392.8C375.167 391.115 376.308 389.717 377.674 388.608C379.06 387.477 380.639 386.635 382.41 386.08C384.202 385.504 386.122 385.216 388.17 385.216C390.303 385.216 392.223 385.525 393.93 386.144C395.658 386.741 397.13 387.584 398.346 388.672C399.562 389.739 400.49 390.997 401.13 392.448C401.791 393.899 402.122 395.467 402.122 397.152C402.122 398.624 401.951 399.925 401.61 401.056C401.29 402.165 400.82 403.136 400.202 403.968C399.583 404.8 398.815 405.504 397.898 406.08C396.98 406.656 395.946 407.136 394.794 407.52C397.567 408.395 399.636 409.728 401.002 411.52C402.367 413.312 403.05 415.563 403.05 418.272C403.05 420.576 402.623 422.613 401.77 424.384C400.916 426.155 399.764 427.648 398.314 428.864C396.863 430.059 395.178 430.965 393.258 431.584C391.359 432.203 389.343 432.512 387.21 432.512C384.884 432.512 382.858 432.245 381.13 431.712C379.402 431.179 377.898 430.389 376.618 429.344C375.338 428.299 374.25 427.019 373.354 425.504C372.458 423.989 371.69 422.24 371.049 420.256L374.538 418.816C375.455 418.432 376.308 418.336 377.098 418.528C377.908 418.699 378.495 419.125 378.858 419.808C379.242 420.555 379.658 421.291 380.106 422.016C380.575 422.741 381.13 423.392 381.77 423.968C382.41 424.523 383.156 424.981 384.01 425.344C384.884 425.685 385.919 425.856 387.114 425.856C388.458 425.856 389.631 425.643 390.634 425.216C391.636 424.768 392.468 424.192 393.13 423.488C393.812 422.784 394.314 422.005 394.634 421.152C394.975 420.277 395.146 419.403 395.146 418.528C395.146 417.419 395.028 416.416 394.794 415.52C394.559 414.603 394.068 413.824 393.322 413.184C392.575 412.544 391.498 412.043 390.09 411.68C388.703 411.317 386.836 411.136 384.49 411.136V405.504C386.431 405.483 388.042 405.301 389.322 404.96C390.602 404.619 391.615 404.149 392.362 403.552C393.13 402.933 393.663 402.197 393.962 401.344C394.26 400.491 394.41 399.552 394.41 398.528C394.41 396.352 393.802 394.699 392.586 393.568C391.37 392.437 389.748 391.872 387.722 391.872C386.783 391.872 385.919 392.011 385.13 392.288C384.34 392.544 383.626 392.917 382.986 393.408C382.367 393.877 381.844 394.432 381.418 395.072C380.991 395.712 380.671 396.416 380.458 397.184C380.095 398.165 379.615 398.816 379.018 399.136C378.442 399.456 377.62 399.531 376.554 399.36L372.394 398.624ZM408.815 427.648C408.815 426.987 408.932 426.357 409.167 425.76C409.423 425.163 409.764 424.651 410.191 424.224C410.617 423.797 411.129 423.456 411.727 423.2C412.324 422.944 412.964 422.816 413.647 422.816C414.329 422.816 414.959 422.944 415.535 423.2C416.132 423.456 416.644 423.797 417.071 424.224C417.519 424.651 417.871 425.163 418.127 425.76C418.383 426.357 418.511 426.987 418.511 427.648C418.511 428.331 418.383 428.971 418.127 429.568C417.871 430.144 417.519 430.645 417.071 431.072C416.644 431.499 416.132 431.829 415.535 432.064C414.959 432.32 414.329 432.448 413.647 432.448C412.964 432.448 412.324 432.32 411.727 432.064C411.129 431.829 410.617 431.499 410.191 431.072C409.764 430.645 409.423 430.144 409.167 429.568C408.932 428.971 408.815 428.331 408.815 427.648ZM456.77 408.864C456.77 412.896 456.333 416.405 455.458 419.392C454.605 422.357 453.41 424.811 451.874 426.752C450.359 428.693 448.557 430.144 446.466 431.104C444.397 432.043 442.157 432.512 439.746 432.512C437.335 432.512 435.095 432.043 433.026 431.104C430.978 430.144 429.197 428.693 427.682 426.752C426.167 424.811 424.983 422.357 424.13 419.392C423.277 416.405 422.85 412.896 422.85 408.864C422.85 404.811 423.277 401.301 424.13 398.336C424.983 395.371 426.167 392.917 427.682 390.976C429.197 389.035 430.978 387.595 433.026 386.656C435.095 385.696 437.335 385.216 439.746 385.216C442.157 385.216 444.397 385.696 446.466 386.656C448.557 387.595 450.359 389.035 451.874 390.976C453.41 392.917 454.605 395.371 455.458 398.336C456.333 401.301 456.77 404.811 456.77 408.864ZM448.61 408.864C448.61 405.515 448.365 402.741 447.874 400.544C447.383 398.347 446.722 396.597 445.89 395.296C445.079 393.995 444.141 393.088 443.074 392.576C442.007 392.043 440.898 391.776 439.746 391.776C438.615 391.776 437.517 392.043 436.45 392.576C435.405 393.088 434.477 393.995 433.666 395.296C432.855 396.597 432.205 398.347 431.714 400.544C431.245 402.741 431.01 405.515 431.01 408.864C431.01 412.213 431.245 414.987 431.714 417.184C432.205 419.381 432.855 421.131 433.666 422.432C434.477 423.733 435.405 424.651 436.45 425.184C437.517 425.696 438.615 425.952 439.746 425.952C440.898 425.952 442.007 425.696 443.074 425.184C444.141 424.651 445.079 423.733 445.89 422.432C446.722 421.131 447.383 419.381 447.874 417.184C448.365 414.987 448.61 412.213 448.61 408.864ZM489.234 410.368C487.527 411.477 486.279 412.736 485.49 414.144C484.722 415.531 484.338 417.024 484.338 418.624C484.338 419.797 484.54 420.853 484.946 421.792C485.351 422.731 485.895 423.531 486.578 424.192C487.282 424.832 488.092 425.333 489.01 425.696C489.948 426.037 490.94 426.208 491.986 426.208C493.863 426.208 495.58 425.92 497.138 425.344C498.695 424.747 500.103 423.925 501.362 422.88L489.234 410.368ZM520.05 432H512.306C511.495 432 510.834 431.904 510.322 431.712C509.831 431.52 509.308 431.115 508.754 430.496L505.554 427.2C503.527 428.864 501.255 430.165 498.738 431.104C496.22 432.043 493.5 432.512 490.578 432.512C488.807 432.512 487.058 432.213 485.33 431.616C483.623 430.997 482.098 430.112 480.754 428.96C479.41 427.808 478.322 426.421 477.49 424.8C476.679 423.157 476.274 421.312 476.274 419.264C476.274 417.813 476.508 416.448 476.978 415.168C477.447 413.867 478.098 412.661 478.93 411.552C479.762 410.443 480.754 409.451 481.906 408.576C483.058 407.68 484.316 406.912 485.682 406.272C484.53 404.672 483.698 403.115 483.186 401.6C482.674 400.064 482.418 398.539 482.418 397.024C482.418 395.424 482.706 393.909 483.282 392.48C483.879 391.029 484.732 389.771 485.842 388.704C486.951 387.637 488.316 386.795 489.938 386.176C491.559 385.536 493.394 385.216 495.442 385.216C497.319 385.216 498.994 385.504 500.466 386.08C501.959 386.656 503.228 387.424 504.274 388.384C505.34 389.344 506.172 390.443 506.77 391.68C507.388 392.917 507.751 394.197 507.858 395.52L502.834 396.576C501.895 396.768 501.212 396.363 500.786 395.36C500.594 394.805 500.338 394.283 500.018 393.792C499.719 393.28 499.356 392.843 498.93 392.48C498.503 392.096 498.002 391.797 497.426 391.584C496.85 391.349 496.188 391.232 495.442 391.232C494.546 391.232 493.746 391.392 493.042 391.712C492.338 392.011 491.74 392.427 491.25 392.96C490.78 393.472 490.418 394.08 490.162 394.784C489.906 395.467 489.778 396.192 489.778 396.96C489.778 397.6 489.842 398.219 489.97 398.816C490.098 399.413 490.311 400.011 490.61 400.608C490.908 401.205 491.292 401.824 491.762 402.464C492.252 403.083 492.85 403.755 493.554 404.48L505.842 417.248C506.546 415.904 507.111 414.485 507.538 412.992C507.964 411.499 508.242 409.984 508.37 408.448C508.434 407.957 508.604 407.563 508.882 407.264C509.159 406.965 509.543 406.816 510.034 406.816H514.962C514.94 409.632 514.535 412.32 513.746 414.88C512.956 417.44 511.826 419.797 510.354 421.952L520.05 432ZM243.703 455.728V502H236.119V472.112C236.119 470.917 236.183 469.627 236.311 468.24L222.327 494.512C221.666 495.771 220.652 496.4 219.287 496.4H218.071C216.706 496.4 215.692 495.771 215.031 494.512L200.887 468.144C200.951 468.848 201.004 469.541 201.047 470.224C201.09 470.907 201.111 471.536 201.111 472.112V502H193.527V455.728H200.023C200.407 455.728 200.738 455.739 201.015 455.76C201.292 455.781 201.538 455.835 201.751 455.92C201.986 456.005 202.188 456.144 202.359 456.336C202.551 456.528 202.732 456.784 202.903 457.104L216.759 482.8C217.122 483.483 217.452 484.187 217.751 484.912C218.071 485.637 218.38 486.384 218.679 487.152C218.978 486.363 219.287 485.605 219.607 484.88C219.927 484.133 220.268 483.419 220.631 482.736L234.295 457.104C234.466 456.784 234.647 456.528 234.839 456.336C235.031 456.144 235.234 456.005 235.447 455.92C235.682 455.835 235.938 455.781 236.215 455.76C236.492 455.739 236.823 455.728 237.207 455.728H243.703ZM262.667 462.576V475.408H278.859V482.032H262.667V495.12H283.211V502H254.027V455.728H283.211V462.576H262.667ZM323.16 462.8H309.208V502H300.6V462.8H286.648V455.728H323.16V462.8ZM349.163 484.528L343.531 469.136C343.253 468.453 342.965 467.643 342.667 466.704C342.368 465.765 342.069 464.752 341.771 463.664C341.493 464.752 341.205 465.776 340.907 466.736C340.608 467.675 340.32 468.496 340.043 469.2L334.443 484.528H349.163ZM364.363 502H357.707C356.96 502 356.352 501.819 355.883 501.456C355.413 501.072 355.061 500.603 354.826 500.048L351.371 490.608H332.203L328.747 500.048C328.576 500.539 328.245 500.987 327.755 501.392C327.264 501.797 326.656 502 325.931 502H319.21L337.419 455.728H346.187L364.363 502ZM405.113 455.728L386.425 502H378.649L359.96 455.728H366.873C367.619 455.728 368.227 455.909 368.697 456.272C369.166 456.635 369.518 457.104 369.753 457.68L380.665 485.904C381.027 486.821 381.369 487.835 381.689 488.944C382.03 490.032 382.35 491.173 382.649 492.368C382.905 491.173 383.182 490.032 383.481 488.944C383.779 487.835 384.11 486.821 384.473 485.904L395.321 457.68C395.491 457.189 395.822 456.741 396.312 456.336C396.825 455.931 397.443 455.728 398.169 455.728H405.113ZM418.542 462.576V475.408H434.734V482.032H418.542V495.12H439.086V502H409.902V455.728H439.086V462.576H418.542ZM460.699 477.744C462.32 477.744 463.728 477.541 464.923 477.136C466.139 476.731 467.131 476.176 467.899 475.472C468.688 474.747 469.275 473.893 469.659 472.912C470.043 471.931 470.235 470.853 470.235 469.68C470.235 467.333 469.456 465.531 467.899 464.272C466.363 463.013 464.005 462.384 460.827 462.384H455.323V477.744H460.699ZM482.843 502H475.067C473.595 502 472.528 501.424 471.867 500.272L462.139 485.456C461.776 484.901 461.371 484.507 460.923 484.272C460.496 484.037 459.856 483.92 459.003 483.92H455.323V502H446.715V455.728H460.827C463.963 455.728 466.651 456.059 468.891 456.72C471.152 457.36 472.997 458.267 474.427 459.44C475.877 460.613 476.944 462.021 477.627 463.664C478.309 465.285 478.651 467.077 478.651 469.04C478.651 470.597 478.416 472.069 477.947 473.456C477.499 474.843 476.837 476.101 475.963 477.232C475.109 478.363 474.043 479.355 472.763 480.208C471.504 481.061 470.064 481.733 468.443 482.224C468.997 482.544 469.509 482.928 469.979 483.376C470.448 483.803 470.875 484.315 471.259 484.912L482.843 502ZM512.48 464.144C512.224 464.592 511.946 464.923 511.648 465.136C511.37 465.328 511.018 465.424 510.592 465.424C510.144 465.424 509.653 465.264 509.12 464.944C508.608 464.603 507.989 464.229 507.264 463.824C506.538 463.419 505.685 463.056 504.704 462.736C503.744 462.395 502.602 462.224 501.28 462.224C500.085 462.224 499.04 462.373 498.144 462.672C497.248 462.949 496.49 463.344 495.872 463.856C495.274 464.368 494.826 464.987 494.528 465.712C494.229 466.416 494.08 467.195 494.08 468.048C494.08 469.136 494.378 470.043 494.976 470.768C495.594 471.493 496.405 472.112 497.408 472.624C498.41 473.136 499.552 473.595 500.832 474C502.112 474.405 503.424 474.843 504.768 475.312C506.112 475.76 507.424 476.293 508.704 476.912C509.984 477.509 511.125 478.277 512.128 479.216C513.13 480.133 513.93 481.264 514.528 482.608C515.146 483.952 515.456 485.584 515.456 487.504C515.456 489.595 515.093 491.557 514.368 493.392C513.664 495.205 512.618 496.795 511.232 498.16C509.866 499.504 508.192 500.571 506.208 501.36C504.224 502.128 501.952 502.512 499.392 502.512C497.92 502.512 496.469 502.363 495.04 502.064C493.61 501.787 492.234 501.381 490.911 500.848C489.61 500.315 488.384 499.675 487.232 498.928C486.08 498.181 485.056 497.349 484.16 496.432L486.688 492.304C486.901 492.005 487.178 491.76 487.52 491.568C487.861 491.355 488.224 491.248 488.608 491.248C489.141 491.248 489.717 491.472 490.336 491.92C490.954 492.347 491.69 492.827 492.544 493.36C493.397 493.893 494.389 494.384 495.52 494.832C496.672 495.259 498.048 495.472 499.648 495.472C502.101 495.472 504 494.896 505.344 493.744C506.688 492.571 507.36 490.896 507.36 488.72C507.36 487.504 507.05 486.512 506.432 485.744C505.834 484.976 505.034 484.336 504.032 483.824C503.029 483.291 501.888 482.843 500.608 482.48C499.328 482.117 498.026 481.723 496.704 481.296C495.381 480.869 494.08 480.357 492.8 479.76C491.52 479.163 490.378 478.384 489.376 477.424C488.373 476.464 487.562 475.269 486.944 473.84C486.346 472.389 486.048 470.608 486.048 468.496C486.048 466.811 486.378 465.168 487.04 463.568C487.722 461.968 488.704 460.549 489.984 459.312C491.264 458.075 492.842 457.083 494.72 456.336C496.597 455.589 498.752 455.216 501.184 455.216C503.914 455.216 506.432 455.643 508.736 456.496C511.04 457.349 513.002 458.544 514.624 460.08L512.48 464.144ZM531.605 462.576V475.408H547.797V482.032H531.605V495.12H552.149V502H522.965V455.728H552.149V462.576H531.605Z" fill="white"/>
<defs>
<filter id="filter0_d_1_948" x="-38.333" y="441.206" width="816.666" height="547.609" filterUnits="userSpaceOnUse" color-interpolation-filters="sRGB">
<feFlood flood-opacity="0" result="BackgroundImageFix"/>
<feColorMatrix in="SourceAlpha" type="matrix" values="0 0 0 0 0 0 0 0 0 0 0 0 0 0 0 0 0 0 127 0" result="hardAlpha"/>
<feOffset dy="6"/>
<feGaussianBlur stdDeviation="62.5"/>
<feComposite in2="hardAlpha" operator="out"/>
<feColorMatrix type="matrix" values="0 0 0 0 0 0 0 0 0 0 0 0 0 0 0 0 0 0 0.25 0"/>
<feBlend mode="normal" in2="BackgroundImageFix" result="effect1_dropShadow_1_948"/>
<feBlend mode="normal" in="SourceGraphic" in2="effect1_dropShadow_1_948" result="shape"/>
</filter>
<filter id="filter1_d_1_948" x="112.38" y="0.205811" width="517.24" height="401.513" filterUnits="userSpaceOnUse" color-interpolation-filters="sRGB">
<feFlood flood-opacity="0" result="BackgroundImageFix"/>
<feColorMatrix in="SourceAlpha" type="matrix" values="0 0 0 0 0 0 0 0 0 0 0 0 0 0 0 0 0 0 127 0" result="hardAlpha"/>
<feOffset dy="6"/>
<feGaussianBlur stdDeviation="62.5"/>
<feComposite in2="hardAlpha" operator="out"/>
<feColorMatrix type="matrix" values="0 0 0 0 0 0 0 0 0 0 0 0 0 0 0 0 0 0 0.25 0"/>
<feBlend mode="normal" in2="BackgroundImageFix" result="effect1_dropShadow_1_948"/>
<feBlend mode="normal" in="SourceGraphic" in2="effect1_dropShadow_1_948" result="shape"/>
</filter>
<linearGradient id="paint0_linear_1_948" x1="353.75" y1="129" x2="353.751" y2="848.5" gradientUnits="userSpaceOnUse">
<stop stop-color="#E93565"/>
<stop offset="1" stop-color="#621F4E" stop-opacity="0"/>
</linearGradient>
<linearGradient id="paint1_linear_1_948" x1="519.213" y1="556.213" x2="220.787" y2="854.639" gradientUnits="userSpaceOnUse">
<stop stop-color="#E93565"/>
<stop offset="1" stop-color="#621F4E"/>
</linearGradient>
<linearGradient id="paint2_linear_1_948" x1="445.607" y1="118.607" x2="296.393" y2="267.82" gradientUnits="userSpaceOnUse">
<stop stop-color="#E93565"/>
<stop offset="1" stop-color="#BC2B5D"/>
</linearGradient>
<linearGradient id="paint3_linear_1_948" x1="445.607" y1="118.607" x2="296.393" y2="267.82" gradientUnits="userSpaceOnUse">
<stop stop-color="#E93565"/>
<stop offset="1" stop-color="#BC2B5D"/>
</linearGradient>
</defs>
</svg>
