<svg width="178" height="156" viewBox="0 0 178 156" fill="none" xmlns="http://www.w3.org/2000/svg">
<path d="M175.271 150.973H170.605L168.133 138.278V39.5542C168.133 39.3779 168.113 39.1337 168.075 38.9319L163.338 13.689V2.5133C163.338 1.12535 162.513 0 161.493 0C160.474 0 159.648 1.12535 159.648 2.5133V13.6909L154.921 38.9333C154.883 39.1341 154.863 39.3774 154.863 39.5542V138.278L152.725 149.26L145.357 141.819L135.233 121.209V55.5448C135.233 55.3685 135.213 55.1243 135.175 54.9225L131.256 34.0401V27.8259C131.256 26.438 130.431 25.3126 129.412 25.3126C128.392 25.3126 127.567 26.438 127.567 27.8259V34.0415L123.655 54.9235C123.617 55.1243 123.597 55.3676 123.597 55.5444V102.212L98.7877 89.9583V69.05C98.7877 67.0218 97.1041 65.8234 95.8835 66.9931L88.5614 73.9931L81.232 66.9916C80.0059 65.8267 78.3275 67.0199 78.3275 69.0495V89.9602L53.5179 102.212V55.5448C53.5179 55.368 53.4979 55.1248 53.4601 54.9239L49.5485 34.042V27.8264C49.5485 26.4385 48.7235 25.3131 47.7037 25.3131C46.6838 25.3131 45.8588 26.4385 45.8588 27.8264V34.0406L41.9399 54.923C41.9025 55.1229 41.8821 55.368 41.8821 55.5453V121.209L31.7583 141.819L24.3912 149.26L22.2528 138.278V39.5542C22.2528 39.3774 22.2328 39.1341 22.195 38.9333L17.4674 13.6909V2.5133C17.4674 1.12535 16.6424 0 15.6225 0C14.6027 0 13.7776 1.12535 13.7776 2.5133V13.689L9.04101 38.9319C9.00363 39.1318 8.98322 39.3769 8.98322 39.5542V138.278L6.51126 150.973H1.84489C0.825025 150.973 0 152.099 0 153.487C0 154.875 0.825025 156 1.84489 156C33.2958 156 139.16 156 175.271 156C176.291 156 177.116 154.875 177.116 153.487C177.116 152.099 176.291 150.973 175.271 150.973ZM158.553 42.0675H164.443V136.094H158.553V42.0675ZM161.495 24.1609L163.911 37.0409H159.083L161.495 24.1609ZM137.15 139.788V150.972H130.747V133.32L137.15 139.788ZM127.057 150.972H120.663V123.135L127.057 129.594V150.972ZM116.973 150.972H110.579V112.95L116.973 119.408V150.972ZM106.889 150.972H100.487V102.758L106.889 109.223V150.972ZM86.7131 92.573V150.972H80.3188V99.0309L86.7131 92.573ZM90.4028 92.573L96.7971 99.0314V150.972H90.4028V92.573ZM76.6287 150.972H70.2271V109.223L76.6287 102.758V150.972ZM66.5373 150.972H60.143V119.408L66.5373 112.95V150.972ZM56.4533 150.972H50.059V129.594L56.4533 123.135V150.972ZM46.3689 150.972H39.9656V139.788L46.3689 133.32V150.972ZM36.2758 143.515V150.972H28.8921L36.2758 143.515ZM140.84 150.972V143.515L148.223 150.972H140.84ZM99.7972 95.8034L124.246 107.88L136.547 132.92L99.7972 95.8034ZM127.288 105.034V58.0586H131.543V113.698L127.288 105.034ZM129.414 44.512L131.012 53.0315H127.817L129.414 44.512ZM82.0176 73.8838L87.5021 79.123C88.1399 79.7293 88.9867 79.7307 89.6211 79.1216L95.0983 73.8847V88.1362C93.043 87.1211 88.9435 85.1095 89.1587 85.2108C88.505 84.9035 88.0157 85.2 87.8295 85.2693L82.018 88.139V73.8838H82.0176ZM47.7023 44.512L49.2987 53.0315H46.1041L47.7023 44.512ZM45.5726 58.0586H49.8282V105.034L45.5726 113.697V58.0586ZM52.8694 107.88L77.3139 95.8081L40.5688 132.92L52.8694 107.88ZM12.6733 42.0675H18.5631V136.094H12.6733V42.0675ZM15.6208 24.1609L18.0332 37.0409H13.2045L15.6208 24.1609ZM10.3291 150.973L12.248 141.121H18.9884L20.9073 150.973H10.3291ZM156.209 150.973L158.128 141.121H164.868L166.787 150.973H156.209Z" fill="url(#paint0_linear_3_261)"/>
<defs>
<linearGradient id="paint0_linear_3_261" x1="88.558" y1="0" x2="88.558" y2="156" gradientUnits="userSpaceOnUse">
<stop stop-color="#E93565"/>
<stop offset="1" stop-color="#BC2B5D"/>
</linearGradient>
</defs>
</svg>
