<svg width="178" height="156" viewBox="0 0 178 156" fill="none" xmlns="http://www.w3.org/2000/svg">
<path d="M72.0381 38.5123C68.1555 38.5123 64.9969 41.3149 64.9969 44.7601V54.4004H79.0792V44.7601C79.0792 41.3149 75.9209 38.5123 72.0381 38.5123ZM75.3893 51.1262H68.687V44.7601C68.687 43.1206 70.1896 41.7864 72.0382 41.7864C73.8868 41.7864 75.3895 43.1206 75.3895 44.7601V51.1262H75.3893ZM89.2859 38.5123C85.4033 38.5123 82.2448 41.3149 82.2448 44.7601V54.4004H96.3252V44.7601C96.3252 41.3149 93.1668 38.5123 89.2859 38.5123ZM92.6353 51.1262H85.9347V44.7601C85.9347 43.1206 87.4373 41.7864 89.2859 41.7864C91.1327 41.7864 92.6353 43.1206 92.6353 44.7601V51.1262ZM106.532 38.5123C102.649 38.5123 99.4908 41.3149 99.4908 44.7601V54.4004H113.573V44.7601C113.573 41.3149 110.415 38.5123 106.532 38.5123ZM109.883 51.1262H103.181V44.7601C103.181 43.1206 104.684 41.7864 106.532 41.7864C108.381 41.7864 109.883 43.1206 109.883 44.7601V51.1262H109.883Z" fill="url(#paint0_linear_3_271)"/>
<path d="M131.023 67.8734H123.643V71.147H131.023V67.8734Z" fill="url(#paint1_linear_3_271)"/>
<path d="M81.2094 67.8734H73.829V71.147H81.2094V67.8734Z" fill="url(#paint2_linear_3_271)"/>
<path d="M48.0003 67.8734H40.6199V71.147H48.0003V67.8734Z" fill="url(#paint3_linear_3_271)"/>
<path d="M97.814 67.8734H90.4336V71.147H97.814V67.8734Z" fill="url(#paint4_linear_3_271)"/>
<path d="M114.419 67.8734H107.038V71.147H114.419V67.8734Z" fill="url(#paint5_linear_3_271)"/>
<path d="M64.6048 67.8734H57.2244V71.147H64.6048V67.8734Z" fill="url(#paint6_linear_3_271)"/>
<path d="M111.437 76.3599H104.056V79.6335H111.437V76.3599Z" fill="url(#paint7_linear_3_271)"/>
<path d="M92.9891 76.3599H85.6086V79.6335H92.9891V76.3599Z" fill="url(#paint8_linear_3_271)"/>
<path d="M74.5395 76.3599H67.1591V79.6335H74.5395V76.3599Z" fill="url(#paint9_linear_3_271)"/>
<path d="M129.888 76.3599H122.508V79.6335H129.888V76.3599Z" fill="url(#paint10_linear_3_271)"/>
<path d="M56.088 76.3599H48.7075V79.6335H56.088V76.3599Z" fill="url(#paint11_linear_3_271)"/>
<path d="M50.9857 84.8483H43.6052V88.1219H50.9857V84.8483Z" fill="url(#paint12_linear_3_271)"/>
<path d="M67.5902 84.8483H60.2097V88.1219H67.5902V84.8483Z" fill="url(#paint13_linear_3_271)"/>
<path d="M132.452 84.8483H125.072V88.1219H132.452V84.8483Z" fill="url(#paint14_linear_3_271)"/>
<path d="M115.847 84.8483H108.467V88.1219H115.847V84.8483Z" fill="url(#paint15_linear_3_271)"/>
<path d="M61.76 93.3348H54.3795V96.6084H61.76V93.3348Z" fill="url(#paint16_linear_3_271)"/>
<path d="M43.2977 93.3348H35.9172V96.6084H43.2977V93.3348Z" fill="url(#paint17_linear_3_271)"/>
<path d="M112.889 93.3348H105.509V96.6084H112.889V93.3348Z" fill="url(#paint18_linear_3_271)"/>
<path d="M131.337 93.3348H123.956V96.6084H131.337V93.3348Z" fill="url(#paint19_linear_3_271)"/>
<path d="M60.3851 101.821H53.0046V105.095H60.3851V101.821Z" fill="url(#paint20_linear_3_271)"/>
<path d="M43.7806 101.821H36.4001V105.095H43.7806V101.821Z" fill="url(#paint21_linear_3_271)"/>
<path d="M117.3 101.821H109.919V105.095H117.3V101.821Z" fill="url(#paint22_linear_3_271)"/>
<path d="M133.904 101.821H126.524V105.095H133.904V101.821Z" fill="url(#paint23_linear_3_271)"/>
<path d="M41.4546 110.31H34.0741V113.583H41.4546V110.31Z" fill="url(#paint24_linear_3_271)"/>
<path d="M58.0592 110.31H50.6787V113.583H58.0592V110.31Z" fill="url(#paint25_linear_3_271)"/>
<path d="M118.019 110.31H110.638V113.583H118.019V110.31Z" fill="url(#paint26_linear_3_271)"/>
<path d="M134.614 110.31H127.234V113.583H134.614V110.31Z" fill="url(#paint27_linear_3_271)"/>
<path d="M36.507 118.797H29.1266V122.07H36.507V118.797Z" fill="url(#paint28_linear_3_271)"/>
<path d="M54.9548 118.797H47.5743V122.07H54.9548V118.797Z" fill="url(#paint29_linear_3_271)"/>
<path d="M133.49 118.797H126.109V122.07H133.49V118.797Z" fill="url(#paint30_linear_3_271)"/>
<path d="M115.042 118.797H107.662V122.07H115.042V118.797Z" fill="url(#paint31_linear_3_271)"/>
<path d="M42.4939 58.4337H36.6001V61.7073H42.4939V58.4337Z" fill="url(#paint32_linear_3_271)"/>
<path d="M52.4105 58.4337H46.5186V61.7073H52.4105V58.4337Z" fill="url(#paint33_linear_3_271)"/>
<path d="M140.056 58.4337H132.855V61.7073H140.056V58.4337Z" fill="url(#paint34_linear_3_271)"/>
<path d="M128.496 58.4337H124.362V61.7073H128.496V58.4337Z" fill="url(#paint35_linear_3_271)"/>
<path d="M177.116 144.187H170.037V135.65H164.828V127.111H154.348L147.939 51.3118H136.064C136.1 50.7498 136.127 50.1742 136.127 49.5987C136.127 27.5533 115.783 9.53029 90.4099 8.69333V0.509936H86.7201V8.69333C61.3507 9.53347 41.0106 27.5551 41.0106 49.5986C41.0106 50.1436 41.0295 50.7134 41.0647 51.3116H29.1968L22.7701 127.111H12.2896V135.65H7.08068V144.187H0V156H177.116V144.187ZM166.347 138.924V144.187H120.578V138.924C132.726 138.924 155.57 138.924 166.347 138.924ZM124.992 147.461V152.726H52.1254V147.461H124.992ZM116.888 138.924V144.187H60.2277V138.924H116.888ZM71.6326 130.385C82.0252 130.385 100.929 130.385 109.824 130.385V135.65H67.2941V130.385H71.6326ZM75.2486 121.236C75.5516 116.836 76.5998 111.148 78.7619 104.615C80.5457 99.1157 83.1733 93.116 85.7959 87.9999C86.0757 87.5644 86.6442 86.0302 88.5651 86.0302C90.6048 86.0302 91.1129 87.7035 91.2479 87.8695C94.0399 93.2976 96.5295 98.9132 98.3755 104.624C100.547 111.182 101.592 116.888 101.887 121.237C101.992 122.745 102.041 124.33 101.961 127.111H75.1693C75.0885 124.3 75.1606 122.499 75.2486 121.236ZM161.138 130.385V135.65H113.514V130.385C125.686 130.385 149.006 130.385 161.138 130.385ZM58.6026 52.813V51.2951H44.7581C44.7203 50.6955 44.7005 50.1336 44.7005 49.5989C44.7005 45.8622 45.3466 42.2541 46.5317 38.8438C53.6239 37.5315 96.7906 30.2173 130.794 39.4139C131.856 42.6559 132.437 46.0693 132.437 49.5989C132.437 50.1625 132.41 50.73 132.372 51.2951H120.38L118.535 51.3118V52.813L117.191 59.9536H59.9449L58.6026 52.813ZM88.5687 11.9273C107.002 11.9273 122.804 21.7445 129.286 35.6063C97.5628 27.8636 59.3649 33.313 48.0182 35.2433C54.6052 21.5726 70.2964 11.9273 88.5687 11.9273ZM29.7766 88.1223H34.3786V84.8482H30.0543L30.4963 79.6348H37.6417V76.3607H30.7741C31.5745 67.0173 31.153 74.3335 32.6202 54.5861H55.1953L56.8209 63.2279H120.315L121.943 54.5861H144.516L145.639 67.8738H140.242V71.148H145.916L146.357 76.3605H140.959V79.6346H146.633L147.074 84.848H141.675V88.1221H147.351L147.792 93.3347H142.412V96.6088H148.069L148.509 101.821H143.127V105.095H148.786L149.227 110.309H143.844V113.583H149.503L149.944 118.796H144.559V122.07H150.221L150.647 127.111H105.63C105.685 125.178 105.759 123.779 105.57 121.037C105.254 116.406 104.159 110.478 101.919 103.711C100.065 97.9754 97.9621 93.2568 95.3937 88.1217H99.2403V84.8482H93.4869C92.2787 83.5347 90.5089 82.7563 88.5651 82.7563C86.6355 82.7563 84.8724 83.524 83.646 84.8482H76.8125V88.1223H81.7198C80.8525 89.8624 80.0347 91.6009 79.2662 93.3349H72.8235V96.609H77.8652C77.1413 98.3605 76.4809 100.099 75.8798 101.822H69.6092V105.096H74.7755C74.205 106.911 73.7126 108.646 73.3115 110.309H67.2869V113.583H72.6245C72.2659 115.365 72.0004 117.1 71.8113 118.796H66.0275V122.07H71.53C71.4092 124.57 71.4357 124.427 71.5073 127.111H26.4709L29.7766 88.1223ZM15.9794 130.385C28.1219 130.385 51.471 130.385 63.6042 130.385V135.65H15.9794V130.385ZM10.7707 138.924C21.5771 138.924 44.4086 138.924 56.5378 138.924V144.187H10.7707V138.924ZM3.68985 147.461C16.8565 147.461 28.4819 147.461 48.4355 147.461V152.726H3.68985V147.461ZM173.426 152.726H128.682V147.461C142.008 147.461 153.048 147.461 173.426 147.461V152.726ZM144.236 35.0911C144.326 34.9288 146.53 31.1263 150.719 32.6195L152.096 29.582C149.007 28.4797 146.436 29.0249 144.505 30.1223C143.963 28.1431 142.529 26.1728 139.444 25.0728L138.068 28.112C142.139 29.5621 140.968 33.4453 140.824 33.8746L144.236 35.0911ZM162.07 8.6547L160.621 5.64274C157.564 6.80104 156.176 8.79865 155.685 10.7882C153.724 9.72741 151.137 9.23586 148.083 10.3925L149.532 13.4045C153.566 11.8753 155.83 15.3564 156.072 15.7505L159.457 14.478C159.3 14.0423 158.034 10.183 162.07 8.6547ZM62.6331 3.03922L61.2567 0C58.1722 1.09912 56.7379 3.07032 56.1957 5.04954C54.2642 3.95359 51.695 3.40838 48.6051 4.50834L49.9817 7.54756C54.0518 6.08947 56.2337 9.61957 56.4644 10.0183L59.8769 8.80166C59.8169 8.62829 58.4405 4.53241 62.6331 3.03922ZM35.9623 27.9865L34.5858 24.9489C31.804 25.9409 30.46 27.6924 29.9175 29.4756C28.1337 28.5205 25.7969 28.0791 23.017 29.0712L24.3898 32.1104C27.9896 30.8299 29.9175 33.9514 30.121 34.3032L33.5371 33.0962C33.4075 32.7075 32.3732 29.2662 35.9623 27.9865ZM33.4777 7.91371L32.1011 4.87616C28.2869 6.23593 26.6492 8.74749 26.1231 11.1967C23.8349 9.74981 20.6945 8.93926 16.8784 10.3005L18.255 13.3389C23.4637 11.4836 26.2365 15.9617 26.5303 16.4733L29.9428 15.2566C29.8653 15.0359 28.1175 9.82488 33.4777 7.91371ZM119.861 3.14789V6.42202C124.6 6.42202 125.183 10.7194 125.232 11.2014L128.909 11.2094C128.96 10.7194 129.543 6.42202 134.282 6.42202V3.14789C130.736 3.14789 128.459 4.6227 127.071 6.40446C125.684 4.6227 123.407 3.14789 119.861 3.14789Z" fill="url(#paint36_linear_3_271)"/>
<defs>
<linearGradient id="paint0_linear_3_271" x1="89.285" y1="38.5123" x2="89.285" y2="54.4004" gradientUnits="userSpaceOnUse">
<stop stop-color="#E93565"/>
<stop offset="1" stop-color="#BC2B5D"/>
</linearGradient>
<linearGradient id="paint1_linear_3_271" x1="127.333" y1="67.8734" x2="127.333" y2="71.147" gradientUnits="userSpaceOnUse">
<stop stop-color="#E93565"/>
<stop offset="1" stop-color="#BC2B5D"/>
</linearGradient>
<linearGradient id="paint2_linear_3_271" x1="77.5192" y1="67.8734" x2="77.5192" y2="71.147" gradientUnits="userSpaceOnUse">
<stop stop-color="#E93565"/>
<stop offset="1" stop-color="#BC2B5D"/>
</linearGradient>
<linearGradient id="paint3_linear_3_271" x1="44.3101" y1="67.8734" x2="44.3101" y2="71.147" gradientUnits="userSpaceOnUse">
<stop stop-color="#E93565"/>
<stop offset="1" stop-color="#BC2B5D"/>
</linearGradient>
<linearGradient id="paint4_linear_3_271" x1="94.1238" y1="67.8734" x2="94.1238" y2="71.147" gradientUnits="userSpaceOnUse">
<stop stop-color="#E93565"/>
<stop offset="1" stop-color="#BC2B5D"/>
</linearGradient>
<linearGradient id="paint5_linear_3_271" x1="110.728" y1="67.8734" x2="110.728" y2="71.147" gradientUnits="userSpaceOnUse">
<stop stop-color="#E93565"/>
<stop offset="1" stop-color="#BC2B5D"/>
</linearGradient>
<linearGradient id="paint6_linear_3_271" x1="60.9146" y1="67.8734" x2="60.9146" y2="71.147" gradientUnits="userSpaceOnUse">
<stop stop-color="#E93565"/>
<stop offset="1" stop-color="#BC2B5D"/>
</linearGradient>
<linearGradient id="paint7_linear_3_271" x1="107.746" y1="76.3599" x2="107.746" y2="79.6335" gradientUnits="userSpaceOnUse">
<stop stop-color="#E93565"/>
<stop offset="1" stop-color="#BC2B5D"/>
</linearGradient>
<linearGradient id="paint8_linear_3_271" x1="89.2989" y1="76.3599" x2="89.2989" y2="79.6335" gradientUnits="userSpaceOnUse">
<stop stop-color="#E93565"/>
<stop offset="1" stop-color="#BC2B5D"/>
</linearGradient>
<linearGradient id="paint9_linear_3_271" x1="70.8493" y1="76.3599" x2="70.8493" y2="79.6335" gradientUnits="userSpaceOnUse">
<stop stop-color="#E93565"/>
<stop offset="1" stop-color="#BC2B5D"/>
</linearGradient>
<linearGradient id="paint10_linear_3_271" x1="126.198" y1="76.3599" x2="126.198" y2="79.6335" gradientUnits="userSpaceOnUse">
<stop stop-color="#E93565"/>
<stop offset="1" stop-color="#BC2B5D"/>
</linearGradient>
<linearGradient id="paint11_linear_3_271" x1="52.3977" y1="76.3599" x2="52.3977" y2="79.6335" gradientUnits="userSpaceOnUse">
<stop stop-color="#E93565"/>
<stop offset="1" stop-color="#BC2B5D"/>
</linearGradient>
<linearGradient id="paint12_linear_3_271" x1="47.2955" y1="84.8483" x2="47.2955" y2="88.1219" gradientUnits="userSpaceOnUse">
<stop stop-color="#E93565"/>
<stop offset="1" stop-color="#BC2B5D"/>
</linearGradient>
<linearGradient id="paint13_linear_3_271" x1="63.8999" y1="84.8483" x2="63.8999" y2="88.1219" gradientUnits="userSpaceOnUse">
<stop stop-color="#E93565"/>
<stop offset="1" stop-color="#BC2B5D"/>
</linearGradient>
<linearGradient id="paint14_linear_3_271" x1="128.762" y1="84.8483" x2="128.762" y2="88.1219" gradientUnits="userSpaceOnUse">
<stop stop-color="#E93565"/>
<stop offset="1" stop-color="#BC2B5D"/>
</linearGradient>
<linearGradient id="paint15_linear_3_271" x1="112.157" y1="84.8483" x2="112.157" y2="88.1219" gradientUnits="userSpaceOnUse">
<stop stop-color="#E93565"/>
<stop offset="1" stop-color="#BC2B5D"/>
</linearGradient>
<linearGradient id="paint16_linear_3_271" x1="58.0697" y1="93.3348" x2="58.0697" y2="96.6084" gradientUnits="userSpaceOnUse">
<stop stop-color="#E93565"/>
<stop offset="1" stop-color="#BC2B5D"/>
</linearGradient>
<linearGradient id="paint17_linear_3_271" x1="39.6075" y1="93.3348" x2="39.6075" y2="96.6084" gradientUnits="userSpaceOnUse">
<stop stop-color="#E93565"/>
<stop offset="1" stop-color="#BC2B5D"/>
</linearGradient>
<linearGradient id="paint18_linear_3_271" x1="109.199" y1="93.3348" x2="109.199" y2="96.6084" gradientUnits="userSpaceOnUse">
<stop stop-color="#E93565"/>
<stop offset="1" stop-color="#BC2B5D"/>
</linearGradient>
<linearGradient id="paint19_linear_3_271" x1="127.647" y1="93.3348" x2="127.647" y2="96.6084" gradientUnits="userSpaceOnUse">
<stop stop-color="#E93565"/>
<stop offset="1" stop-color="#BC2B5D"/>
</linearGradient>
<linearGradient id="paint20_linear_3_271" x1="56.6949" y1="101.821" x2="56.6949" y2="105.095" gradientUnits="userSpaceOnUse">
<stop stop-color="#E93565"/>
<stop offset="1" stop-color="#BC2B5D"/>
</linearGradient>
<linearGradient id="paint21_linear_3_271" x1="40.0904" y1="101.821" x2="40.0904" y2="105.095" gradientUnits="userSpaceOnUse">
<stop stop-color="#E93565"/>
<stop offset="1" stop-color="#BC2B5D"/>
</linearGradient>
<linearGradient id="paint22_linear_3_271" x1="113.609" y1="101.821" x2="113.609" y2="105.095" gradientUnits="userSpaceOnUse">
<stop stop-color="#E93565"/>
<stop offset="1" stop-color="#BC2B5D"/>
</linearGradient>
<linearGradient id="paint23_linear_3_271" x1="130.214" y1="101.821" x2="130.214" y2="105.095" gradientUnits="userSpaceOnUse">
<stop stop-color="#E93565"/>
<stop offset="1" stop-color="#BC2B5D"/>
</linearGradient>
<linearGradient id="paint24_linear_3_271" x1="37.7643" y1="110.31" x2="37.7643" y2="113.583" gradientUnits="userSpaceOnUse">
<stop stop-color="#E93565"/>
<stop offset="1" stop-color="#BC2B5D"/>
</linearGradient>
<linearGradient id="paint25_linear_3_271" x1="54.3689" y1="110.31" x2="54.3689" y2="113.583" gradientUnits="userSpaceOnUse">
<stop stop-color="#E93565"/>
<stop offset="1" stop-color="#BC2B5D"/>
</linearGradient>
<linearGradient id="paint26_linear_3_271" x1="114.328" y1="110.31" x2="114.328" y2="113.583" gradientUnits="userSpaceOnUse">
<stop stop-color="#E93565"/>
<stop offset="1" stop-color="#BC2B5D"/>
</linearGradient>
<linearGradient id="paint27_linear_3_271" x1="130.924" y1="110.31" x2="130.924" y2="113.583" gradientUnits="userSpaceOnUse">
<stop stop-color="#E93565"/>
<stop offset="1" stop-color="#BC2B5D"/>
</linearGradient>
<linearGradient id="paint28_linear_3_271" x1="32.8168" y1="118.797" x2="32.8168" y2="122.07" gradientUnits="userSpaceOnUse">
<stop stop-color="#E93565"/>
<stop offset="1" stop-color="#BC2B5D"/>
</linearGradient>
<linearGradient id="paint29_linear_3_271" x1="51.2646" y1="118.797" x2="51.2646" y2="122.07" gradientUnits="userSpaceOnUse">
<stop stop-color="#E93565"/>
<stop offset="1" stop-color="#BC2B5D"/>
</linearGradient>
<linearGradient id="paint30_linear_3_271" x1="129.8" y1="118.797" x2="129.8" y2="122.07" gradientUnits="userSpaceOnUse">
<stop stop-color="#E93565"/>
<stop offset="1" stop-color="#BC2B5D"/>
</linearGradient>
<linearGradient id="paint31_linear_3_271" x1="111.352" y1="118.797" x2="111.352" y2="122.07" gradientUnits="userSpaceOnUse">
<stop stop-color="#E93565"/>
<stop offset="1" stop-color="#BC2B5D"/>
</linearGradient>
<linearGradient id="paint32_linear_3_271" x1="39.547" y1="58.4337" x2="39.547" y2="61.7073" gradientUnits="userSpaceOnUse">
<stop stop-color="#E93565"/>
<stop offset="1" stop-color="#BC2B5D"/>
</linearGradient>
<linearGradient id="paint33_linear_3_271" x1="49.4645" y1="58.4337" x2="49.4645" y2="61.7073" gradientUnits="userSpaceOnUse">
<stop stop-color="#E93565"/>
<stop offset="1" stop-color="#BC2B5D"/>
</linearGradient>
<linearGradient id="paint34_linear_3_271" x1="136.456" y1="58.4337" x2="136.456" y2="61.7073" gradientUnits="userSpaceOnUse">
<stop stop-color="#E93565"/>
<stop offset="1" stop-color="#BC2B5D"/>
</linearGradient>
<linearGradient id="paint35_linear_3_271" x1="126.429" y1="58.4337" x2="126.429" y2="61.7073" gradientUnits="userSpaceOnUse">
<stop stop-color="#E93565"/>
<stop offset="1" stop-color="#BC2B5D"/>
</linearGradient>
<linearGradient id="paint36_linear_3_271" x1="88.558" y1="0" x2="88.558" y2="156" gradientUnits="userSpaceOnUse">
<stop stop-color="#E93565"/>
<stop offset="1" stop-color="#BC2B5D"/>
</linearGradient>
</defs>
</svg>
