<svg width="163" height="156" viewBox="0 0 163 156" fill="none" xmlns="http://www.w3.org/2000/svg">
<path d="M80.9534 0C80.6416 1.73898 80.6617 3.47795 80.3425 5.25809C80.2504 5.26828 79.9742 5.29756 79.6999 5.3293C77.3627 5.59955 75.5569 6.14895 74.5549 7.07221C73.7414 7.82179 73.5553 8.61887 73.8552 9.42954C74.0137 9.85826 73.7592 10.2069 73.2962 10.6199C72.6705 11.178 72.3903 11.6605 72.4288 12.2716C72.4528 12.6528 72.853 13.0244 72.859 13.4018C72.8979 15.8217 72.6159 18.3062 72.6407 20.7262C72.6433 20.9811 72.3634 21.0952 71.7838 21.1916C69.3768 21.5921 67.5397 22.0848 65.9516 22.9472C64.8826 23.5277 64.3251 24.178 64.9929 24.9274C65.2503 25.2163 65.384 25.5306 65.455 25.8379C65.4908 25.9931 65.2646 26.1592 65.1503 26.3195C65.0061 26.5215 64.7254 26.7236 64.735 26.9239C64.7526 27.2901 64.9399 27.655 65.0546 28.0146C66.949 28.1132 67.6748 28.4671 67.6154 29.2409C67.6091 29.3247 67.6005 29.4085 67.5919 29.4923C67.3218 32.1372 67.0421 34.7821 66.7971 37.4278C66.7747 37.6696 66.6022 37.7772 66.0452 37.8624C63.4049 38.2665 61.0708 38.875 59.3669 39.8095C57.9628 40.5796 57.5428 41.4449 58.4305 42.3789C58.6724 42.6335 58.8241 42.9037 58.9797 43.1705C59.0186 43.2374 58.958 43.3712 58.8656 43.3848C58.2427 43.4762 58.3795 43.679 58.3982 43.8642C58.4367 44.2472 58.525 44.6301 58.5174 45.0128C58.5132 45.2307 58.7339 45.3099 59.1905 45.3962C61.1013 45.7573 62.6718 46.2441 62.5135 47.2374C62.4666 47.5322 62.7662 47.6863 63.4329 47.7374C64.251 47.8 64.5109 48.0291 64.4678 48.3337C64.3874 48.9022 64.2766 49.47 64.1677 50.0999C64.4408 50.1312 64.8673 50.18 65.3328 50.2334C65.3328 50.4497 65.3557 50.6761 65.3295 50.9016C64.8303 55.2084 64.3807 59.516 63.8021 63.8212C63.4114 66.7267 62.8816 69.6296 62.3336 72.5311C61.648 76.1605 60.8764 79.7872 60.1485 83.4149C59.387 87.21 58.7551 91.0103 57.844 94.7993C56.8185 99.0638 55.6524 103.324 54.3511 107.576C52.7934 112.664 50.1447 117.666 46.7248 122.598C45.9845 123.666 45.1971 124.728 44.4207 125.807C42.8884 125.744 41.443 125.69 40.0003 125.625C36.6084 125.473 33.2223 125.353 29.8167 125.588C25.7543 125.869 22.0453 126.414 19.2105 127.663C23.3902 128.248 32.2101 129.833 37.0412 133.044C38.4059 133.952 41.4217 136.244 41.1712 139.303C41.0397 140.908 40.004 142.552 37.2517 144.694C30.991 149.566 21.598 153.842 15.1353 155.999H19.5748C20.5845 155.662 21.6067 155.331 22.6018 154.986C26.0354 153.799 28.5715 152.326 30.789 150.734C32.5772 149.45 34.4084 148.165 36.5351 146.975C38.9491 145.625 42.1117 144.573 45.7025 143.762C47.698 143.312 49.8177 143.008 52.1336 143.162C55.5495 143.389 57.9927 144.494 58.3722 145.957C58.7997 147.606 57.7 149.143 56.0148 150.599C54.845 151.609 53.3413 152.556 51.929 153.517C50.3739 154.575 48.0993 155.335 45.6148 155.999H49.9495C55.3945 152.821 59.0992 149.352 60.5343 147.437C62.3237 145.049 66.7594 138.812 60.9074 131.877C59.1998 129.853 56.6379 128.052 55.0199 127.015C54.8816 127.011 54.7465 127.002 54.626 126.987C52.931 126.782 51.2548 126.55 49.5259 126.322C50.2604 125.137 51.0288 123.926 51.7617 122.711C52.676 121.196 53.5455 119.676 54.3615 118.153C58.4611 117.618 63.4447 117.082 68.7541 116.718C68.5437 117.689 68.3308 118.659 68.1198 119.63C67.7285 121.43 67.174 123.224 66.7328 125.023C66.654 125.344 66.3763 125.474 65.5758 125.544C62.4921 125.813 59.5416 126.246 56.6897 126.794C58.3544 127.875 60.822 129.642 62.5171 131.651C68.5573 138.81 63.9634 145.236 62.1622 147.64C60.7184 149.567 57.2155 152.865 52.0152 155.999H59.5957C62.2571 153.356 64.5056 150.656 66.1435 147.874C66.465 147.328 66.7001 146.772 67.0835 146.234C67.3054 145.922 67.6224 145.598 68.1031 145.346C74.6865 141.894 87.4133 142.044 93.528 145.638C93.817 145.808 94.049 146.017 94.1301 146.22C95.4539 149.532 97.8203 152.711 101.199 155.765C101.28 155.838 101.31 155.921 101.364 156H108.101C102.977 152.847 100.455 149.522 99.0427 147.638C97.2276 145.215 93.0933 138.672 99.1304 131.518C100.69 129.669 102.963 128.002 104.621 126.902C100.163 126.757 96.816 125.613 95.393 125.413C94.7783 125.326 94.4949 125.229 94.428 124.964C94.0215 123.357 93.4662 121.754 93.1791 120.143C92.9681 118.96 92.7608 117.776 92.5579 116.592C97.682 116.887 102.352 117.355 106.503 117.893C107.879 120.635 109.469 123.362 111.303 126.073C111.364 126.163 111.404 126.256 111.415 126.278C109.506 126.696 107.85 126.846 106.639 126.895C105.007 127.943 102.419 129.753 100.74 131.743C94.8849 138.683 98.8954 145.066 100.671 147.435C102.139 149.395 104.771 152.84 110.158 156H115.345C112.506 155.251 109.959 154.368 107.968 153.238C103.822 150.884 102.132 148.241 102.583 145.357C102.737 144.375 105.504 143.354 108.092 143.272C110.35 143.2 112.416 143.466 114.373 143.887C118.782 144.836 122.165 146.209 124.388 148.052C127.893 150.959 132.283 153.605 138.003 155.858C138.102 155.897 138.162 155.952 138.24 156H144.648C138.282 153.809 129.554 149.76 123.495 145.044C120.743 142.902 119.707 141.259 119.575 139.654C119.325 136.595 122.341 134.303 123.706 133.395C126.608 131.466 131.113 130.111 135.153 129.202C138.125 128.533 140.833 128.108 142.534 127.88C140.214 126.736 137.288 125.957 133.679 125.621C130.982 125.37 128.233 125.415 125.5 125.487C122.717 125.56 119.939 125.671 117.106 125.767C117.054 125.711 116.972 125.637 116.915 125.559C111.438 118.18 107.587 110.658 105.632 102.987C104.657 99.1658 104.195 95.3227 103.454 91.4914C103.008 89.1878 102.478 86.8868 101.975 84.5851C101.491 82.3668 100.948 80.1506 100.514 77.9307C100.032 75.4717 99.619 73.0102 99.2221 70.5486C98.7441 67.5848 98.2931 64.6202 97.8707 61.655C97.528 59.2495 97.2306 56.8429 96.9299 54.4365L97.0192 54.3759C96.9862 54.3678 96.9524 54.3598 96.9192 54.3517C96.9096 54.2744 96.8999 54.1971 96.8903 54.1197C96.7332 52.8647 96.6115 51.609 96.4751 50.3644C97.4443 50.1127 97.8026 50.1414 97.4942 49.4709C96.8223 48.0095 98.1921 46.728 101.124 45.9747C101.905 45.7741 102.995 45.6442 103.384 45.3547C103.801 45.0443 103.56 44.584 103.606 44.1891C103.61 44.1533 103.608 44.1173 103.615 44.0815C103.654 43.8756 103.719 43.6701 103.032 43.607C102.925 43.5972 102.778 43.4944 102.8 43.4455C102.909 43.1909 102.943 42.912 103.231 42.6925C104.301 41.8787 104.285 41.0877 103.103 40.3097C101.33 39.1425 98.848 38.3221 95.7143 37.8451C95.2207 37.77 95.0588 37.6768 95.0465 37.4641C94.9904 36.4942 94.8852 35.5247 94.8022 34.555C94.6607 32.9029 94.4477 31.2509 94.436 29.5986C94.433 29.1871 95.0065 28.7584 95.4849 28.3734C95.6174 28.2667 96.361 28.2892 96.8229 28.2499C96.8728 28.2456 96.9141 28.2241 97.0038 28.1974C97.0566 27.8056 97.1393 27.4 97.1506 26.9941C97.1547 26.8468 96.9919 26.6982 96.898 26.551C96.7812 26.3678 96.5168 26.1784 96.5678 26.0041C96.6475 25.7326 96.9442 25.4723 97.138 25.2059C97.2206 25.0922 97.3199 24.9762 97.3367 24.8595C97.5149 23.6113 96.3223 22.6493 93.7285 21.9928C92.9115 21.7859 92.0417 21.6138 91.234 21.4015C90.9895 21.3373 90.2393 21.2027 90.2299 21.0917C89.9752 18.0748 90.2288 15.0483 90.0226 12.031C89.9897 11.5487 89.6052 11.1375 89.1006 10.7073C88.6578 10.3298 88.2951 9.85646 88.4338 9.457C89.184 7.29649 86.6345 5.74557 81.4766 5.25465C81.4766 4.41394 81.3173 3.44778 81.3173 2.58697C81.3173 1.72876 81.1799 0.862895 81.1799 0.00468273C81.1122 0.00238028 81.0208 0.00389318 80.9532 0.00164593L80.9534 0ZM81.6783 11.0013H81.7541C82.5094 11.0098 83.1996 11.2179 83.2145 11.5013C83.2207 11.6195 83.2256 11.7378 83.2295 11.856C83.2568 12.684 83.2327 13.513 83.2327 14.3482C82.1543 14.392 81.0224 14.4381 79.767 14.4892C79.8683 13.6779 79.9693 12.8481 80.0782 12.0183C80.0994 11.8563 80.139 11.6942 80.1913 11.533C80.2351 11.3979 80.3424 11.2835 80.5226 11.1958C80.7545 11.083 81.1073 11.0144 81.6023 11.0023C81.6276 11.0015 81.653 11.0013 81.6783 11.0011L81.6783 11.0013ZM76.8806 11.2444C77.053 11.3436 77.3714 11.4423 77.3753 11.5422C77.4127 12.5214 77.3979 13.5009 77.3979 14.517C76.8829 14.5841 76.1784 14.6759 75.5991 14.7514C75.5991 13.7021 75.5949 12.6603 75.6098 11.6184C75.6107 11.5576 75.7139 11.4774 75.8611 11.4403C76.1684 11.3629 76.537 11.3084 76.8806 11.2445L76.8806 11.2444ZM86.1803 11.2444C86.5705 11.3083 86.9894 11.3629 87.3385 11.4403C87.5058 11.4774 87.6227 11.5575 87.6237 11.6184C87.6406 12.6602 87.6359 13.7021 87.6359 14.7513C86.978 14.6759 86.1777 14.5841 85.5928 14.5171C85.5928 13.5008 85.5758 12.5214 85.6184 11.5422C85.6205 11.4923 85.7121 11.4426 85.8275 11.3931C85.9429 11.3435 86.0823 11.294 86.1803 11.2444L86.1803 11.2444ZM82.5741 15.3151C82.9357 15.3135 83.3079 15.3216 83.694 15.3412V20.5686H78.77C78.7629 20.5193 78.7353 20.4154 78.7353 20.3115C78.7325 18.8742 78.7535 17.4368 78.7152 15.9997C78.708 15.7321 78.9377 15.6171 79.5146 15.541C80.4989 15.4111 81.4891 15.3197 82.5741 15.3151L82.5741 15.3151ZM77.2438 15.581C77.3635 17.2907 77.4826 18.9907 77.6004 20.6726C76.6152 20.7485 75.7373 20.8162 74.8027 20.8883V16.87C74.8028 16.262 75.6715 15.7921 77.2438 15.5809L77.2438 15.581ZM85.4673 15.581C86.5975 15.7328 87.3641 16.0182 87.7059 16.3925C87.7356 16.425 87.7621 16.4583 87.7854 16.4921C87.8668 16.6106 87.9084 16.737 87.9084 16.87V20.8883C86.9737 20.8163 86.0958 20.7486 85.1107 20.6726C85.2285 18.9907 85.3476 17.2907 85.4673 15.5811L85.4673 15.581ZM81.5155 25.2363C82.3497 25.2381 83.1865 25.2862 84.0348 25.3881V29.6853H78.3425C78.336 29.6558 78.2993 29.5664 78.2993 29.4769C78.2955 28.234 78.311 26.991 78.284 25.7482C78.2789 25.5142 78.4516 25.4184 79.0128 25.3625C79.3268 25.3312 79.6399 25.3054 79.9527 25.2854C80.1612 25.2721 80.3695 25.2614 80.5778 25.2534C80.682 25.2494 80.7861 25.2461 80.8903 25.2435C81.0986 25.2383 81.307 25.2359 81.5155 25.2364L81.5155 25.2363ZM75.924 25.5329C76.0159 25.5329 76.1084 25.5329 76.2018 25.5337C76.064 26.9879 75.9307 28.3961 75.7999 29.7738C74.373 29.9571 72.9736 30.1368 71.5191 30.3237C71.5105 30.2793 71.483 30.2029 71.483 30.1266C71.4803 28.857 71.4955 27.5875 71.4675 26.318C71.4625 26.091 71.6421 25.9722 72.1399 25.8863C73.3309 25.6808 74.5458 25.5382 75.9242 25.5329L75.924 25.5329ZM86.5727 25.5354C87.3584 25.5383 88.1313 25.5921 88.8865 25.6872C89.0543 25.7083 89.2211 25.7314 89.3871 25.7565C89.8021 25.8193 90.2114 25.8942 90.6139 25.9796C90.7065 25.9992 90.7824 26.0551 90.8266 26.1141C90.8442 26.1377 90.8568 26.1619 90.8633 26.1844C90.8665 26.1956 90.8683 26.2064 90.8685 26.2166C90.8836 27.6381 90.8793 29.0595 90.8793 30.4628C89.3501 30.2476 87.9077 30.0447 86.2928 29.8175V25.5366C86.3862 25.5355 86.4796 25.5351 86.5727 25.5355V25.5354ZM93.0784 26.8987C93.2887 27.0983 93.6819 27.2983 93.6797 27.4976C93.6777 27.665 93.6745 27.8324 93.6702 27.9998C93.6401 29.1715 93.5562 30.3431 93.4903 31.5148C93.4894 31.5328 93.4412 31.5503 93.2905 31.6529C93.1895 31.5434 93.0745 31.4488 92.9817 31.3609C92.9585 31.3389 92.9366 31.3173 92.9168 31.296C92.8573 31.2322 92.8156 31.171 92.807 31.109C92.7538 30.7281 92.7036 30.3471 92.6586 29.966C92.6436 29.8389 92.6291 29.7119 92.6153 29.5849C92.5603 29.0767 92.5159 28.5682 92.4875 28.0597C92.4668 27.6868 92.6398 27.312 92.7245 26.938C92.8425 26.9248 92.9604 26.9117 93.0784 26.8986L93.0784 26.8987ZM69.7294 27.0436C69.6135 28.3875 69.5374 29.7089 69.3433 31.0273C69.3154 31.2173 68.7197 31.3931 68.2018 31.5418C68.1878 31.4291 68.1614 31.3165 68.1614 31.2038C68.1586 30.0553 68.1551 28.9069 68.1622 27.7585C68.1649 27.3189 68.5022 27.1495 69.7294 27.0436L69.7294 27.0436ZM78.874 30.3424C80.3773 30.3452 81.8808 30.3424 83.3842 30.3464C83.8063 30.3476 84.0762 30.4042 84.0727 30.6209C84.0526 31.8771 84.063 33.1335 84.063 34.4025C83.1801 34.3701 82.2167 34.3497 81.1831 34.3493C80.1286 34.3493 79.1469 34.3696 78.2488 34.4025C78.2488 34.163 78.2575 33.9035 78.2472 33.644C78.2086 32.6621 78.1795 31.68 78.1101 30.6984C78.093 30.4562 78.2768 30.3412 78.8738 30.3423L78.874 30.3424ZM86.3225 30.5375C87.8928 30.8214 89.2932 31.0677 90.6729 31.3323C90.854 31.3671 91.0356 31.4951 91.0372 31.5804C91.0606 32.8233 91.0533 34.0661 91.0533 35.3324C90.3668 35.195 89.6158 35.0576 88.8018 34.9264C88.0653 34.8077 87.3586 34.7071 86.6902 34.6217C86.5722 33.3102 86.453 31.9861 86.3226 30.5374L86.3225 30.5375ZM75.7348 30.6346V34.5846C75.0643 34.6381 74.3517 34.7048 73.6046 34.7882C72.776 34.8808 72.0085 34.9824 71.3055 35.0868V34.0109C71.3055 33.1865 71.2866 32.3619 71.3247 31.5378C71.3307 31.4061 71.5044 31.2262 71.7493 31.1541C72.9321 30.8061 74.2734 30.6338 75.7347 30.6345L75.7348 30.6346ZM68.8661 31.9594C68.9621 31.9721 69.058 31.9848 69.154 31.9975C69.1656 32.0968 69.1949 32.1963 69.186 32.2953C69.0836 33.4424 68.9882 34.5898 68.8531 35.7363C68.8488 35.7725 68.8311 35.8085 68.8049 35.8443C68.7917 35.8622 68.7764 35.88 68.7596 35.8979C68.6757 35.987 68.5538 36.0754 68.4708 36.1645C68.3112 36.1539 68.1515 36.1433 67.992 36.1326C67.992 35.0008 67.9384 33.8683 68.0317 32.7378C68.0372 32.672 68.0738 32.6067 68.1303 32.5416C68.1444 32.5253 68.1597 32.5091 68.1761 32.4929C68.2583 32.4117 68.3669 32.3309 68.4799 32.2502C68.525 32.2179 68.5708 32.1857 68.6159 32.1534C68.7061 32.0888 68.7933 32.0242 68.8662 31.9593L68.8661 31.9594ZM93.2386 32.2044C93.3836 32.3849 93.6558 32.5657 93.653 32.7458C93.6358 33.877 93.5575 35.008 93.4977 36.139C93.4953 36.1861 93.4751 36.2331 93.3512 36.2814C92.7759 34.9383 92.8953 33.5848 92.9649 32.232C93.0561 32.2228 93.1474 32.2136 93.2386 32.2043L93.2386 32.2044ZM81.1797 35.0131C82.183 35.0131 83.1862 35.0638 84.1948 35.1642V36.7002H78.1637V35.1655C79.1729 35.0636 80.1763 35.0131 81.1797 35.0131V35.0131ZM75.8583 35.2632C75.7874 35.8105 75.7244 36.2959 75.6613 36.7823C74.2002 36.9031 72.7853 37.02 71.3299 37.1402C71.3069 37.0229 71.2829 36.9047 71.2608 36.7864C71.1754 36.3293 71.1326 36.1121 71.4081 35.962C71.4243 35.9532 71.4415 35.9446 71.46 35.9362C71.5707 35.8859 71.7232 35.8426 71.9294 35.7989C71.9981 35.7843 72.0728 35.7696 72.1539 35.7546C72.3973 35.7097 72.6986 35.6618 73.0697 35.6032C73.2847 35.5693 73.5028 35.5387 73.7249 35.5101C74.3913 35.424 75.094 35.3549 75.8582 35.2632L75.8583 35.2632ZM86.699 35.2658C87.3943 35.3625 88.1562 35.4851 88.9606 35.6416C89.6327 35.7725 90.2395 35.9085 90.7807 36.042C90.8718 36.1095 90.9573 36.1882 91.0226 36.2779C91.3059 36.6675 91.023 37.0165 90.8631 37.1748C89.4409 37.056 88.0567 36.9404 86.5232 36.8124C86.5818 36.2969 86.6404 35.7813 86.6991 35.2658L86.699 35.2658ZM68.515 36.7187C68.6289 36.7386 68.743 36.7586 68.857 36.7785C68.857 36.8903 68.8788 37.0037 68.8756 37.1152C68.875 37.1375 68.8733 37.1597 68.8703 37.1818C68.8673 37.2039 68.8629 37.2259 68.8567 37.2478C68.8506 37.2697 68.8428 37.2914 68.8328 37.3129C68.7948 37.3952 68.4989 37.4573 68.3198 37.5286C68.1821 37.4691 67.9286 37.3938 67.858 37.3433C67.8525 37.3395 67.8482 37.3358 67.845 37.3322C67.8419 37.3286 67.8399 37.3252 67.8393 37.322C67.8387 37.3188 67.8395 37.3158 67.8419 37.3129C68.0076 37.1069 68.2806 36.9154 68.515 36.7187H68.515ZM80.535 40.3352C83.0239 40.3328 85.4981 40.4112 88.0328 40.5574C87.8775 40.8965 87.8224 41.243 87.5563 41.5596C86.2085 43.1629 85.5925 44.8055 85.7543 46.5018C85.7757 46.7251 85.5242 46.9532 85.3921 47.1784C85.3057 47.3256 85.1215 47.4721 85.1262 47.618C85.1786 49.2734 85.2322 50.9287 85.2859 52.584C83.9713 52.5023 82.6122 52.4568 81.2102 52.4561C79.7201 52.4553 78.2781 52.5054 76.8864 52.5959C76.9017 52.2102 76.9181 51.8246 76.9329 51.4389C76.9838 50.1216 76.997 48.8022 76.8791 47.486C76.7445 45.9858 76.5204 44.4852 76.1763 42.9909C76.0441 42.4167 75.4664 41.8604 75.1068 41.2943C74.949 41.0458 74.829 40.7933 74.6649 40.4935C76.6541 40.3878 78.5989 40.3371 80.5349 40.3352L80.535 40.3352ZM73.0925 40.6349C73.5422 41.3407 73.9948 42.002 74.3821 42.6696C75.1312 43.9611 75.3736 45.2688 75.0318 46.5925C75.0017 46.7085 75.0248 46.8296 75.0669 46.9457C75.1885 47.2806 75.4691 47.6158 75.4473 47.9482C75.4198 48.3699 75.2757 50.4178 75.1121 52.7346C72.7312 52.9536 70.5151 53.2876 68.4822 53.6835C68.6475 52.0611 68.8091 50.4385 68.9842 48.8163C69.0244 48.4435 69.1866 48.0709 68.0883 47.8787C67.9642 47.857 67.9033 47.6947 67.9417 47.6071C68.8118 45.6223 67.5077 43.9629 63.6408 42.6777C63.0215 42.4718 63.0872 42.0983 63.764 41.9424C66.6863 41.2694 69.7991 40.8256 73.0923 40.6348L73.0925 40.6349ZM89.702 40.6914C93.1879 40.9499 96.3657 41.4609 99.1681 42.3372C99.6408 42.485 99.5692 42.8024 99.0742 42.9455C94.9408 44.1406 93.6133 45.8145 94.1121 47.8106C94.1408 47.9253 93.9692 48.0906 93.7534 48.1646C93.3111 48.3162 93.1322 48.4722 93.1535 48.7142C93.2971 50.3502 93.4281 51.9864 93.56 53.6226C91.5942 53.2495 89.4607 52.9362 87.1769 52.7285C86.9687 50.1369 86.8607 48.1855 87.066 47.8574C87.0881 47.8223 87.2305 47.522 87.4232 47.1072C87.4709 47.0045 87.5302 46.8969 87.5038 46.795C87.1487 45.4192 87.4562 44.0686 88.4284 42.7461C88.77 42.2812 89.2436 41.8326 89.5778 41.3669C89.7211 41.1671 89.6627 40.9429 89.7019 40.6913L89.702 40.6914ZM81.2071 53.6482C82.6255 53.6489 83.9988 53.7009 85.3249 53.7941C85.4935 58.9676 85.6666 64.1409 85.838 69.3151C84.347 69.2306 82.805 69.1833 81.2142 69.1827C79.4753 69.1819 77.7941 69.2364 76.1747 69.335C76.2071 68.5196 76.2402 67.7042 76.2754 66.8889C76.4637 62.5288 76.6609 58.1688 76.838 53.8084C78.2417 53.7051 79.6991 53.6476 81.2073 53.6483L81.2071 53.6482ZM87.2791 53.9639C89.5751 54.2015 91.7114 54.5568 93.6694 54.9742C93.84 57.0658 94.0183 59.1573 94.2328 61.2482C94.5464 64.3034 94.9275 67.3578 95.3518 70.4106C93.1599 70.0279 90.7786 69.7039 88.2276 69.4848C88.1785 68.684 88.1297 67.8831 88.0822 67.0823C88.0357 66.2964 88.0946 66.4272 88.0919 65.9324C88.0751 62.7427 87.6091 57.8604 87.2791 53.9636L87.2791 53.9639ZM75.0247 53.9695C74.7383 58.0203 74.418 62.5319 74.418 62.5319C74.2815 63.6 74.4316 62.8045 74.1297 67.2386C74.0748 68.0443 74.0206 68.7932 73.9668 69.4993C71.1906 69.7434 68.6169 70.1112 66.272 70.5425C66.8083 66.9627 67.356 63.383 67.8052 59.8015C68.0037 58.2179 68.1767 56.6337 68.3416 55.0495C70.3778 54.6033 72.613 54.2218 75.0247 53.9699L75.0247 53.9695ZM81.2102 70.6733C82.8231 70.6741 84.3833 70.7282 85.888 70.8248C85.8967 71.0905 85.9057 71.3562 85.9144 71.6219C86.0733 76.4409 86.1867 81.2598 86.3829 86.0784C84.7145 86.0028 82.9924 85.9612 81.2203 85.9606C79.193 85.9598 77.2314 86.0128 75.3403 86.109C75.4259 84.8885 75.5079 83.6679 75.5833 82.4472C75.822 78.5814 75.965 74.7147 76.115 70.8482C77.748 70.7355 79.4479 70.6725 81.2103 70.6733H81.2102ZM88.3219 71.021C90.9447 71.2767 93.3746 71.6551 95.5899 72.0939C95.605 72.1985 95.6196 72.3032 95.6347 72.4078C96.3138 77.0936 97.0587 81.7777 97.8448 86.4614C97.8859 86.7061 97.9282 86.9507 97.9699 87.1954C95.2556 86.7938 92.2991 86.4563 89.1259 86.2364C89.0879 85.7079 89.0504 85.1794 89.0135 84.6509C88.8624 82.484 88.8627 80.3154 88.7446 78.1481C88.6151 75.7724 88.4684 73.397 88.3219 71.0214V71.021ZM73.8441 71.0404C73.5248 74.9055 73.2172 77.4717 72.8898 81.0285C72.6785 83.323 72.5578 84.963 72.4788 86.2909C69.3406 86.5292 66.4214 86.8806 63.7467 87.2918C64.1824 84.7525 64.4613 82.2086 64.8439 79.6677C65.2163 77.1937 65.6334 74.7209 66.0145 72.2472C68.3749 71.7546 70.995 71.3257 73.8441 71.0405V71.0404ZM81.2164 87.7497C83.0204 87.7505 84.7687 87.798 86.4579 87.8836C86.6523 92.4377 86.8284 96.9925 87.2416 101.544C85.2971 101.469 83.2911 101.428 81.2275 101.427C78.7583 101.427 76.3722 101.484 74.0746 101.587C74.1418 100.942 74.2036 100.298 74.2589 99.6524C74.5944 95.7422 74.9223 91.8316 75.2101 87.9202C77.135 87.8099 79.139 87.7485 81.2166 87.7493L81.2164 87.7497ZM89.2601 88.0635C92.5386 88.3182 95.5665 88.709 98.3116 89.1651C98.8504 92.2174 99.4263 95.2687 99.9944 98.3204C100.265 99.7723 100.575 101.222 100.929 102.668C97.7112 102.261 94.2053 101.92 90.4424 101.699C90.2857 100.159 90.143 98.6173 90.0027 97.0763C89.7291 94.0725 89.4843 91.0682 89.26 88.0636L89.2601 88.0635ZM72.3847 88.1215C72.2749 90.6325 72.2644 92.3395 71.7775 97.2642C71.6466 98.5875 71.4911 100.078 71.2933 101.737C67.3891 101.981 63.7678 102.354 60.4655 102.792C60.9099 101.165 61.3123 99.536 61.6847 97.9066C62.3414 95.0326 62.8861 92.1541 63.3983 89.2748C66.1155 88.8058 69.1217 88.3972 72.3847 88.1212L72.3847 88.1215ZM81.2228 103.813C83.3807 103.814 85.4706 103.863 87.4878 103.951C87.8486 107.103 88.3504 110.253 88.8817 113.402C86.4164 113.314 83.8663 113.265 81.2354 113.264C78.2301 113.264 75.2448 113.343 72.3335 113.478C72.6887 111.49 73.0237 109.502 73.318 107.513C73.4911 106.343 73.6515 105.173 73.797 104.003C76.1708 103.881 78.6481 103.812 81.2229 103.813L81.2228 103.813ZM90.7042 104.129C94.6707 104.392 98.3216 104.799 101.616 105.272C102.498 108.39 103.596 111.492 104.949 114.577C101.011 114.139 96.6966 113.771 92.0473 113.537C91.7167 111.509 91.4048 109.48 91.1219 107.451C90.9677 106.344 90.831 105.236 90.7044 104.128L90.7042 104.129ZM70.9849 104.174C70.7866 105.655 70.5525 107.257 70.2686 108.997C70.0162 110.544 69.7204 112.089 69.4047 113.634C64.6014 113.922 60.0637 114.35 56.0568 114.811C57.2787 112.26 58.3327 109.695 59.1747 107.114C59.3582 106.551 59.535 105.988 59.7062 105.425C63.0834 104.915 66.8585 104.468 70.985 104.175L70.9849 104.174ZM81.2296 116.263C84.0609 116.264 86.7921 116.325 89.4158 116.434C89.9475 119.203 90.6062 121.969 91.1894 124.736C91.2016 124.794 91.191 124.852 91.191 124.936C87.636 124.589 84.0975 124.413 80.5033 124.439C76.9382 124.465 73.4444 124.689 69.9169 125.081C70.1123 124.219 70.3081 123.387 70.4879 122.555C70.9218 120.548 71.3906 118.541 71.7723 116.531C74.8877 116.363 78.0756 116.262 81.2297 116.263L81.2296 116.263ZM11.8832 127.963C9.72673 127.963 7.57215 128.035 5.41738 128.179C4.76811 128.222 4.3944 128.34 4.18113 128.603C3.24574 129.756 4.23704 131.014 6.71743 131.707C7.12832 131.822 7.65308 131.902 8.1465 131.927C17.1663 132.385 23.734 134.262 27.4703 137.683C29.608 139.641 30.21 141.678 28.2989 143.757C27.0276 145.14 25.4621 146.458 23.4468 147.683C18.7144 150.558 12.5683 152.817 5.43228 154.64C3.63234 155.1 1.81134 155.546 0 155.998H12.4511L12.4189 155.98C18.4914 154.167 29.0522 149.577 35.7407 144.371C38.4098 142.294 39.3441 140.78 39.4671 139.278C39.7015 136.417 36.8672 134.257 35.5871 133.406C30.2243 129.841 18.9111 128.31 16.897 128.098L16.8997 128.093C15.2257 128.006 13.5537 127.963 11.8828 127.963L11.8832 127.963ZM150.835 128.023C148.694 128.019 146.562 128.136 144.443 128.383C144.296 128.4 144.167 128.41 144.049 128.412C142.75 128.564 139.518 129.01 135.975 129.807C132.095 130.68 127.833 131.976 125.156 133.756C123.876 134.607 121.042 136.767 121.276 139.628C121.399 141.13 122.334 142.643 125.003 144.721C131.473 149.756 141.226 154.077 147.357 155.998H162.356C161.259 155.779 160.148 155.572 159.066 155.341C148.606 153.113 140.258 149.967 134.688 145.668C132.044 143.627 131.052 141.4 132.094 139.122C133.781 135.434 142.107 132.421 151.195 132.057C151.943 132.027 152.815 132.069 153.41 131.925C156.009 131.294 157.851 130.01 156.854 128.617C156.69 128.387 156.392 128.293 155.848 128.247C154.172 128.102 152.501 128.026 150.835 128.023L150.835 128.023ZM33.4637 144.086C33.6417 144.089 33.8058 144.107 33.887 144.142C34.0838 144.228 34.1951 144.444 34.0682 144.544C30.6313 147.28 26.1666 149.694 20.6153 151.763C20.6001 151.769 20.568 151.767 20.5439 151.769C20.4629 151.742 20.382 151.715 20.3009 151.688C23.9218 149.465 27.5422 147.242 31.1643 145.02C31.5035 144.811 31.8338 144.6 32.2051 144.402C32.4131 144.291 32.6597 144.165 32.957 144.117C33.0939 144.094 33.2857 144.083 33.4636 144.086H33.4637ZM129.237 144.645C129.415 144.642 129.607 144.654 129.744 144.676C130.041 144.724 130.288 144.85 130.496 144.961C130.867 145.159 131.198 145.371 131.537 145.579C135.159 147.801 138.779 150.024 142.4 152.247C142.319 152.274 142.238 152.301 142.157 152.328C142.133 152.326 142.101 152.328 142.086 152.323C136.535 150.253 132.07 147.839 128.633 145.104C128.506 145.003 128.617 144.787 128.814 144.701C128.895 144.666 129.059 144.648 129.237 144.645L129.237 144.645Z" fill="url(#paint0_linear_3_266)"/>
<defs>
<linearGradient id="paint0_linear_3_266" x1="81.1781" y1="0" x2="81.1781" y2="156" gradientUnits="userSpaceOnUse">
<stop stop-color="#E93565"/>
<stop offset="1" stop-color="#BC2B5D"/>
</linearGradient>
</defs>
</svg>
