<svg width="757" height="652" viewBox="0 0 757 652" fill="none" xmlns="http://www.w3.org/2000/svg">
<g filter="url(#filter0_d_3_214)">
<path fill-rule="evenodd" clip-rule="evenodd" d="M282.53 594.635C293.267 594.635 295.857 596.596 295.967 604.811C296.09 613.898 296.6 614.137 300.717 607.069C303.252 602.716 309.058 599.155 313.619 599.155C318.18 599.155 322.997 595.004 324.324 589.93C326.237 582.617 329.116 581.302 338.216 583.586C350.024 586.549 372.062 586.924 399.847 584.632C412.017 583.629 415.991 581.11 417.044 573.733C419.04 559.75 404.413 528.984 393.453 524.114C386.006 520.804 384.228 516.358 385.014 503.01C385.811 489.471 384.413 486.098 378.004 486.098C367.265 486.098 359.107 477.311 359.319 465.974C359.415 460.875 368.58 446.528 379.685 434.091L399.877 411.48L407.776 421.536C413.565 428.907 417.487 430.436 422.458 427.259C426.189 424.875 434.33 422.829 440.548 422.713C452.088 422.497 463.902 410.243 469.439 392.746C471.125 387.417 478.367 380.629 485.531 377.662C494.569 373.918 501.444 365.556 507.986 350.348C513.377 337.817 521.291 327.2 526.466 325.557C531.444 323.978 535.517 319.453 535.517 315.502C535.517 311.552 541.067 301.044 547.849 292.151C556.711 280.533 560.053 271.054 559.723 258.47C559.308 242.641 560.749 240.336 574.707 234.504C590.731 227.809 591.349 219.281 575.809 219.281C574.295 219.281 572.754 218.99 571.305 218.478L574.934 214.912C579.171 214.338 583.897 213.732 588.546 213.174C609.198 210.694 610.892 210.818 620.036 215.483C629.458 220.289 630.007 220.316 641.936 216.556L654.172 212.699L665.262 219.733C671.362 223.602 676.93 226.839 677.637 226.926C678.345 227.013 688.041 220.66 699.185 212.808C717.715 199.752 719.845 197.458 724.096 185.971C730.321 169.152 730.687 131.355 724.808 112.297L720.753 99.1483L712.138 100.526C705.797 101.539 699.936 100.408 689.937 96.2383C682.464 93.1229 670.904 89.4267 664.247 88.0249C663.763 87.9231 663.291 87.827 662.828 87.7368C672.132 82.6858 670.526 81.8394 643.641 73.1072C615.983 64.1245 601.651 53.8384 606.304 46.31C610.601 39.3569 602.533 24.8193 594.378 24.8193C589.778 24.8193 585.336 22.8489 584.507 20.4405C582.585 14.8523 565.554 14.5837 517.147 19.3792C484.574 22.6059 475.104 25.5003 457.506 37.6084C436.986 51.7267 436.71 52.2391 443.061 64.4142C452.238 82.0052 451.179 93.2675 438.768 110.09C432.815 118.159 428.886 128.362 430.038 132.765C433.367 145.494 420.257 152.947 399.448 150.155C382.525 147.886 381.588 148.292 387.777 155.219C400.36 169.3 398.751 180.296 383.035 187.623C368.454 194.422 359.145 211.089 359.145 230.396C359.145 235.768 356.326 244.017 352.881 248.729C347.488 256.104 344.448 256.629 331.009 252.505C314.917 247.566 300.354 252.821 300.354 263.566C300.354 270.097 283.926 274.926 271.763 271.971C255.282 267.967 242.53 282.595 240.441 307.904C238.69 329.108 237.835 330.342 220.867 336.14C179.659 350.222 89.7327 348.96 53.7484 333.796L31 324.209L43.3058 349.755C52.2211 368.262 60.3578 377.972 72.8376 384.996C88.8663 394.018 90.1588 396.298 91.4308 417.783C92.5794 437.185 94.2048 440.874 101.606 440.874C107.274 440.874 110.414 443.967 110.414 449.549C110.414 467.528 105.386 472.531 87.3186 472.531C77.6358 472.531 69.7131 474.345 69.7131 476.563C69.7131 478.781 65.1342 481.748 59.5378 483.158C49.3458 485.726 38.0566 510.942 38.0566 531.14C38.0566 538.644 39.7739 539.491 48.3713 536.222C54.0446 534.065 69.8668 532.484 83.532 532.708C97.1971 532.932 110.635 531.72 113.393 530.016C116.15 528.311 127.694 529.711 139.044 533.127C150.395 536.544 160.438 538.582 161.363 537.657C163.416 535.602 197.639 531.937 218.087 531.583C228.548 531.401 232.172 529.622 230.131 525.67C228.524 522.561 231.187 524.901 236.047 530.87C240.907 536.838 243.967 545.224 242.848 549.505C241.458 554.821 244.198 558.138 251.493 559.969C258.936 561.837 262.471 566.249 263.156 574.524C264.563 591.528 267.557 594.635 282.53 594.635Z" fill="#102342"/>
<path d="M295.967 604.811L293.468 604.844L293.468 604.844L295.967 604.811ZM300.717 607.069L298.557 605.811L300.717 607.069ZM324.324 589.93L321.905 589.297L324.324 589.93ZM338.216 583.586L338.825 581.161L338.216 583.586ZM399.847 584.632L399.641 582.141H399.641L399.847 584.632ZM417.044 573.733L414.569 573.38L414.569 573.38L417.044 573.733ZM393.453 524.114L394.469 521.829L394.469 521.829L393.453 524.114ZM385.014 503.01L387.509 503.157V503.157L385.014 503.01ZM359.319 465.974L361.819 466.021V466.021L359.319 465.974ZM379.685 434.091L377.82 432.426V432.426L379.685 434.091ZM399.877 411.48L401.844 409.936L400 407.589L398.013 409.815L399.877 411.48ZM407.776 421.536L409.742 419.992L409.742 419.992L407.776 421.536ZM422.458 427.259L421.112 425.152H421.112L422.458 427.259ZM440.548 422.713L440.594 425.212L440.548 422.713ZM469.439 392.746L471.822 393.501L471.822 393.501L469.439 392.746ZM485.531 377.662L484.574 375.352L484.574 375.352L485.531 377.662ZM507.986 350.348L510.283 351.336V351.336L507.986 350.348ZM526.466 325.557L525.71 323.174L525.71 323.175L526.466 325.557ZM547.849 292.151L545.862 290.635L545.862 290.635L547.849 292.151ZM559.723 258.47L557.224 258.535V258.535L559.723 258.47ZM574.707 234.504L575.671 236.811V236.811L574.707 234.504ZM571.305 218.478L569.553 216.694L566.696 219.501L570.472 220.835L571.305 218.478ZM574.934 214.912L574.598 212.435L573.775 212.546L573.182 213.129L574.934 214.912ZM588.546 213.174L588.844 215.656L588.546 213.174ZM620.036 215.483L618.9 217.71L620.036 215.483ZM641.936 216.556L642.688 218.94L641.936 216.556ZM654.172 212.699L655.511 210.588L654.529 209.965L653.421 210.314L654.172 212.699ZM665.262 219.733L666.601 217.622L666.601 217.622L665.262 219.733ZM699.185 212.808L697.745 210.764V210.764L699.185 212.808ZM724.096 185.971L721.752 185.103L724.096 185.971ZM724.808 112.297L727.197 111.561L724.808 112.297ZM720.753 99.1483L723.141 98.4114L722.502 96.3369L720.358 96.6797L720.753 99.1483ZM712.138 100.526L712.532 102.994L712.532 102.994L712.138 100.526ZM689.937 96.2383L690.899 93.9309L690.899 93.9309L689.937 96.2383ZM664.247 88.0249L664.762 85.5785V85.5785L664.247 88.0249ZM662.828 87.7368L661.636 85.5396L655.522 88.8585L662.35 90.1905L662.828 87.7368ZM643.641 73.1072L644.413 70.7295L644.413 70.7295L643.641 73.1072ZM606.304 46.31L608.431 47.6244L608.431 47.6243L606.304 46.31ZM584.507 20.4405L582.143 21.2536L582.143 21.2543L584.507 20.4405ZM517.147 19.3792L517.393 21.867L517.393 21.867L517.147 19.3792ZM457.506 37.6084L456.089 35.5488L456.089 35.5488L457.506 37.6084ZM443.061 64.4142L440.845 65.5704V65.5705L443.061 64.4142ZM438.768 110.09L440.78 111.574L440.78 111.574L438.768 110.09ZM430.038 132.765L427.619 133.398L427.619 133.398L430.038 132.765ZM399.448 150.155L399.781 147.678L399.448 150.155ZM387.777 155.219L389.642 153.553L389.642 153.553L387.777 155.219ZM383.035 187.623L381.979 185.357L381.979 185.357L383.035 187.623ZM352.881 248.729L350.863 247.253L350.863 247.253L352.881 248.729ZM331.009 252.505L331.743 250.115L331.009 252.505ZM271.763 271.971L271.173 274.401H271.173L271.763 271.971ZM240.441 307.904L242.932 308.109H242.932L240.441 307.904ZM220.867 336.14L221.675 338.506L221.675 338.506L220.867 336.14ZM53.7484 333.796L52.7775 336.099H52.7775L53.7484 333.796ZM31 324.209L31.9709 321.905L25.8785 319.338L28.7477 325.294L31 324.209ZM43.3058 349.755L41.0535 350.84L41.0535 350.84L43.3058 349.755ZM72.8376 384.996L74.0639 382.818H74.0638L72.8376 384.996ZM91.4308 417.783L88.9351 417.931L88.9351 417.931L91.4308 417.783ZM59.5378 483.158L58.9272 480.733L58.9268 480.734L59.5378 483.158ZM48.3713 536.222L47.4829 533.885H47.4829L48.3713 536.222ZM83.532 532.708L83.573 530.208L83.5729 530.208L83.532 532.708ZM113.393 530.016L114.707 532.142L114.707 532.142L113.393 530.016ZM139.044 533.127L139.765 530.733H139.765L139.044 533.127ZM161.363 537.657L163.131 539.425L163.132 539.424L161.363 537.657ZM218.087 531.583L218.043 529.083L218.087 531.583ZM230.131 525.67L232.352 524.523L232.352 524.523L230.131 525.67ZM236.047 530.87L234.108 532.448H234.108L236.047 530.87ZM242.848 549.505L245.267 550.138L245.267 550.138L242.848 549.505ZM251.493 559.969L250.884 562.394H250.884L251.493 559.969ZM263.156 574.524L260.664 574.73V574.73L263.156 574.524ZM298.467 604.777C298.411 600.587 297.755 596.93 294.743 594.649C293.31 593.565 291.552 592.959 289.581 592.609C287.612 592.258 285.267 592.135 282.53 592.135V597.135C285.161 597.135 287.166 597.257 288.706 597.531C290.244 597.805 291.153 598.203 291.724 598.636C292.719 599.389 293.413 600.82 293.468 604.844L298.467 604.777ZM298.557 605.811C298.047 606.685 297.604 607.428 297.217 608.048C296.825 608.673 296.512 609.137 296.263 609.466C296.139 609.629 296.046 609.739 295.982 609.809C295.912 609.884 295.905 609.88 295.956 609.842C295.998 609.812 296.195 609.671 296.531 609.59C296.709 609.547 296.931 609.521 297.183 609.542C297.438 609.563 297.688 609.631 297.917 609.74C298.37 609.955 298.612 610.264 298.71 610.413C298.807 610.56 298.83 610.651 298.817 610.61C298.788 610.521 298.726 610.259 298.668 609.721C298.553 608.665 298.498 607.059 298.467 604.777L293.468 604.844C293.498 607.106 293.553 608.937 293.697 610.261C293.768 610.913 293.873 611.576 294.061 612.154C294.201 612.585 294.605 613.702 295.772 614.256C297.202 614.935 298.434 614.226 298.918 613.871C299.45 613.48 299.895 612.951 300.248 612.486C300.982 611.517 301.857 610.079 302.877 608.327L298.557 605.811ZM313.619 596.655C310.743 596.655 307.701 597.754 305.101 599.349C302.488 600.952 300.073 603.207 298.557 605.811L302.877 608.327C303.896 606.578 305.652 604.876 307.716 603.611C309.793 602.336 311.934 601.655 313.619 601.655V596.655ZM321.905 589.297C321.382 591.297 320.147 593.177 318.552 594.551C316.945 595.937 315.158 596.655 313.619 596.655V601.655C316.641 601.655 319.543 600.298 321.816 598.339C324.103 596.369 325.939 593.636 326.743 590.562L321.905 589.297ZM338.825 581.161C334.318 580.03 330.515 579.524 327.536 580.885C324.332 582.348 322.889 585.537 321.905 589.297L326.743 590.562C327.672 587.009 328.625 585.884 329.613 585.433C330.827 584.879 333.014 584.858 337.608 586.011L338.825 581.161ZM399.641 582.141C371.869 584.431 350.196 584.015 338.825 581.161L337.608 586.011C349.852 589.084 372.255 589.416 400.052 587.124L399.641 582.141ZM414.569 573.38C414.107 576.617 413.104 578.302 411.276 579.461C409.19 580.783 405.702 581.641 399.641 582.141L400.052 587.124C406.161 586.62 410.746 585.716 413.953 583.684C417.417 581.488 418.928 578.225 419.519 574.086L414.569 573.38ZM392.438 526.398C394.589 527.354 397.245 529.776 400.054 533.469C402.809 537.091 405.517 541.675 407.849 546.579C410.18 551.481 412.103 556.638 413.319 561.386C414.547 566.181 415 570.357 414.569 573.38L419.519 574.086C420.085 570.117 419.458 565.203 418.163 560.145C416.855 555.039 414.811 549.579 412.365 544.433C409.919 539.289 407.041 534.395 404.033 530.441C401.08 526.559 397.797 523.308 394.469 521.829L392.438 526.398ZM382.518 502.863C382.125 509.548 382.322 514.497 383.825 518.255C385.427 522.259 388.358 524.585 392.438 526.398L394.469 521.829C391.101 520.333 389.421 518.781 388.468 516.398C387.416 513.768 387.117 509.82 387.509 503.157L382.518 502.863ZM378.004 488.598C379.43 488.598 380.258 488.794 380.766 489.057C381.187 489.275 381.567 489.628 381.902 490.434C382.269 491.32 382.547 492.685 382.66 494.79C382.771 496.871 382.715 499.512 382.518 502.863L387.509 503.157C387.711 499.738 387.779 496.881 387.652 494.522C387.527 492.186 387.204 490.169 386.521 488.52C385.804 486.791 384.683 485.454 383.064 484.617C381.533 483.824 379.783 483.598 378.004 483.598V488.598ZM356.82 465.927C356.583 478.53 365.736 488.598 378.004 488.598V483.598C368.794 483.598 361.63 476.093 361.819 466.021L356.82 465.927ZM377.82 432.426C372.186 438.736 367.036 445.538 363.267 451.438C361.383 454.386 359.82 457.148 358.712 459.539C357.646 461.836 356.854 464.095 356.82 465.927L361.819 466.021C361.832 465.304 362.221 463.856 363.248 461.642C364.232 459.519 365.672 456.961 367.48 454.13C371.094 448.473 376.079 441.883 381.55 435.757L377.82 432.426ZM398.013 409.815L377.82 432.426L381.55 435.757L401.742 413.145L398.013 409.815ZM409.742 419.992L401.844 409.936L397.911 413.024L405.81 423.081L409.742 419.992ZM421.112 425.152C419.089 426.445 417.708 426.56 416.332 426.023C414.671 425.376 412.593 423.621 409.742 419.992L405.81 423.081C408.749 426.822 411.526 429.517 414.516 430.682C417.79 431.958 420.856 431.249 423.805 429.365L421.112 425.152ZM440.501 420.213C437.166 420.276 433.385 420.85 429.961 421.711C426.579 422.561 423.31 423.748 421.112 425.152L423.805 429.365C425.338 428.386 428.004 427.358 431.18 426.56C434.313 425.773 437.711 425.266 440.594 425.212L440.501 420.213ZM467.055 391.992C464.385 400.431 460.226 407.516 455.445 412.475C450.641 417.457 445.393 420.122 440.501 420.213L440.594 425.212C447.243 425.088 453.671 421.518 459.044 415.945C464.439 410.349 468.956 402.559 471.822 393.501L467.055 391.992ZM484.574 375.352C480.674 376.967 476.824 379.586 473.721 382.494C470.661 385.363 468.083 388.744 467.055 391.992L471.822 393.501C472.481 391.42 474.367 388.742 477.14 386.142C479.871 383.583 483.224 381.323 486.488 379.971L484.574 375.352ZM505.69 349.36C499.238 364.357 492.71 371.982 484.574 375.352L486.488 379.971C496.429 375.854 503.65 366.755 510.283 351.336L505.69 349.36ZM525.71 323.175C523.914 323.744 522.133 324.992 520.466 326.517C518.764 328.075 517.017 330.076 515.303 332.375C511.873 336.976 508.453 342.937 505.69 349.36L510.283 351.336C512.91 345.228 516.142 339.615 519.311 335.363C520.897 333.237 522.435 331.492 523.841 330.206C525.282 328.887 526.43 328.192 527.222 327.94L525.71 323.175ZM533.017 315.502C533.017 316.655 532.389 318.203 531 319.746C529.641 321.256 527.752 322.526 525.71 323.174L527.222 327.94C530.158 327.009 532.795 325.227 534.716 323.092C536.608 320.99 538.017 318.301 538.017 315.502H533.017ZM545.862 290.635C542.39 295.187 539.232 300.153 536.929 304.513C535.778 306.692 534.823 308.755 534.148 310.564C533.498 312.307 533.017 314.05 533.017 315.502H538.017C538.017 314.979 538.23 313.928 538.833 312.311C539.41 310.762 540.266 308.901 541.35 306.848C543.518 302.743 546.526 298.009 549.837 293.667L545.862 290.635ZM557.224 258.535C557.537 270.46 554.436 279.394 545.862 290.635L549.837 293.667C558.986 281.673 562.57 271.647 562.222 258.404L557.224 258.535ZM573.743 232.197C566.899 235.057 562.248 237.346 559.705 241.413C557.184 245.444 557.02 250.782 557.224 258.535L562.222 258.404C562.01 250.328 562.359 246.599 563.945 244.063C565.508 241.562 568.556 239.783 575.671 236.811L573.743 232.197ZM575.809 221.781C579.529 221.781 581.971 222.301 583.361 222.97C584.684 223.607 584.609 224.095 584.601 224.201C584.567 224.664 584.116 225.788 582.215 227.388C580.401 228.914 577.602 230.585 573.743 232.197L575.671 236.811C579.823 235.076 583.11 233.169 585.434 231.213C587.67 229.332 589.406 227.068 589.588 224.562C589.795 221.699 587.962 219.636 585.531 218.465C583.167 217.326 579.859 216.781 575.809 216.781V221.781ZM570.472 220.835C572.159 221.431 573.981 221.781 575.809 221.781V216.781C574.609 216.781 573.349 216.548 572.138 216.12L570.472 220.835ZM573.182 213.129L569.553 216.694L573.057 220.261L576.686 216.696L573.182 213.129ZM588.248 210.692C583.586 211.252 578.848 211.859 574.598 212.435L575.269 217.39C579.494 216.817 584.208 216.213 588.844 215.656L588.248 210.692ZM621.172 213.256C616.55 210.898 613.465 209.499 608.789 209.156C604.344 208.83 598.477 209.463 588.248 210.692L588.844 215.656C599.267 214.405 604.573 213.86 608.424 214.142C612.045 214.408 614.379 215.403 618.9 217.71L621.172 213.256ZM641.185 214.172C635.05 216.105 632.424 216.846 630.168 216.735C628.004 216.629 626.02 215.729 621.172 213.256L618.9 217.71C623.474 220.043 626.475 221.56 629.923 221.729C633.279 221.893 636.893 220.767 642.688 218.94L641.185 214.172ZM653.421 210.314L641.185 214.172L642.688 218.94L654.924 215.083L653.421 210.314ZM666.601 217.622L655.511 210.588L652.833 214.81L663.923 221.844L666.601 217.622ZM677.943 224.445C678.089 224.463 678.193 224.491 678.23 224.501C678.276 224.514 678.301 224.523 678.302 224.523C678.304 224.524 678.295 224.521 678.272 224.511C678.249 224.502 678.219 224.489 678.179 224.471C678.013 224.396 677.763 224.273 677.425 224.096C676.754 223.743 675.836 223.23 674.728 222.586C672.519 221.302 669.63 219.543 666.601 217.622L663.923 221.844C666.994 223.792 669.939 225.586 672.216 226.909C673.351 227.569 674.339 228.123 675.101 228.523C675.48 228.721 675.829 228.896 676.126 229.03C676.274 229.096 676.435 229.165 676.596 229.223C676.717 229.267 676.997 229.366 677.331 229.407L677.943 224.445ZM697.745 210.764C692.19 214.679 687.004 218.213 683.128 220.753C681.186 222.025 679.593 223.035 678.454 223.714C677.88 224.057 677.455 224.296 677.174 224.439C677.029 224.513 676.968 224.538 676.97 224.537C676.974 224.535 676.989 224.53 677.012 224.522C677.035 224.514 677.077 224.501 677.133 224.488C677.182 224.475 677.507 224.391 677.943 224.445L677.331 229.407C677.812 229.466 678.198 229.375 678.327 229.343C678.508 229.298 678.665 229.242 678.777 229.199C679.004 229.111 679.235 229 679.444 228.894C679.873 228.675 680.409 228.371 681.017 228.008C682.244 227.275 683.904 226.222 685.868 224.935C689.803 222.357 695.037 218.789 700.625 214.852L697.745 210.764ZM721.752 185.103C719.658 190.76 718.2 193.828 715.163 197.1C711.997 200.511 707.07 204.194 697.745 210.764L700.625 214.852C709.83 208.366 715.233 204.374 718.827 200.502C722.55 196.491 724.283 192.668 726.441 186.839L721.752 185.103ZM722.419 113.034C725.249 122.209 726.625 136.13 726.491 149.949C726.357 163.793 724.713 177.102 721.752 185.103L726.441 186.839C729.704 178.021 731.355 164.022 731.491 149.998C731.627 135.95 730.246 121.443 727.197 111.561L722.419 113.034ZM718.364 99.8852L722.419 113.034L727.197 111.561L723.141 98.4114L718.364 99.8852ZM712.532 102.994L721.147 101.617L720.358 96.6797L711.743 98.0572L712.532 102.994ZM688.975 98.5458C699.141 102.785 705.517 104.116 712.532 102.994L711.743 98.0572C706.077 98.9629 700.731 98.0305 690.899 93.9309L688.975 98.5458ZM663.732 90.4713C670.21 91.8354 681.62 95.4796 688.975 98.5458L690.899 93.9309C683.309 90.7663 671.598 87.0179 664.762 85.5785L663.732 90.4713ZM662.35 90.1905C662.799 90.2781 663.259 90.3718 663.732 90.4713L664.762 85.5785C664.268 85.4745 663.783 85.3759 663.307 85.283L662.35 90.1905ZM642.869 75.4849C649.601 77.6714 654.696 79.3469 658.43 80.7142C662.26 82.1164 664.349 83.0904 665.313 83.8079C665.801 84.1713 665.607 84.1871 665.51 83.7968C665.369 83.2331 665.659 82.8922 665.581 82.9903C665.463 83.1385 665.134 83.4458 664.402 83.929C663.701 84.3911 662.786 84.9151 661.636 85.5396L664.021 89.9339C665.197 89.2957 666.267 88.6883 667.154 88.1032C668.009 87.5392 668.872 86.8835 669.492 86.1057C670.151 85.2776 670.726 84.0476 670.36 82.5845C670.038 81.2947 669.11 80.4008 668.298 79.7969C666.663 78.5799 663.892 77.3894 660.149 76.0191C656.312 74.6139 651.124 72.9091 644.413 70.7295L642.869 75.4849ZM604.178 44.9956C602.478 47.7463 602.61 50.7508 604.066 53.5604C605.45 56.2302 608.033 58.7792 611.398 61.1942C618.165 66.0509 628.946 70.9633 642.869 75.4849L644.413 70.7295C630.677 66.2684 620.464 61.5464 614.314 57.1322C611.22 54.9118 609.364 52.9162 608.505 51.2594C607.719 49.7423 607.804 48.6379 608.431 47.6244L604.178 44.9956ZM594.378 27.3193C595.67 27.3193 597.167 27.9038 598.723 29.1503C600.264 30.3859 601.705 32.1528 602.825 34.1704C603.944 36.1879 604.683 38.3479 604.918 40.3152C605.155 42.2998 604.861 43.8894 604.178 44.9957L608.431 47.6243C609.896 45.2541 610.205 42.419 609.883 39.7223C609.559 37.0082 608.576 34.2302 607.197 31.7441C605.817 29.2582 603.98 26.9561 601.849 25.2487C599.732 23.5521 597.163 22.3193 594.378 22.3193V27.3193ZM582.143 21.2543C582.902 23.4577 585.023 24.9346 587.014 25.8183C589.138 26.7604 591.746 27.3193 594.378 27.3193V22.3193C592.41 22.3193 590.496 21.893 589.042 21.2478C587.456 20.5441 586.941 19.8316 586.871 19.6267L582.143 21.2543ZM517.393 21.867C541.603 19.4687 557.831 18.352 568.219 18.5157C573.433 18.5978 576.996 19.0025 579.303 19.6498C581.687 20.3189 582.073 21.0507 582.143 21.2536L586.871 19.6274C585.98 17.0362 583.516 15.6389 580.654 14.8358C577.714 14.0109 573.633 13.6004 568.298 13.5163C557.589 13.3475 541.098 14.4943 516.9 16.8914L517.393 21.867ZM458.923 39.668C467.61 33.6908 474.14 30.0914 482.442 27.5541C490.82 24.993 501.112 23.4799 517.393 21.867L516.9 16.8914C500.609 18.5052 489.879 20.0526 480.98 22.7725C472.004 25.516 465 29.4178 456.089 35.5488L458.923 39.668ZM445.278 63.2579C443.653 60.144 442.625 58.082 442.163 56.4098C441.752 54.9192 441.852 53.9572 442.408 52.926C443.07 51.698 444.476 50.1947 447.25 48.0019C449.983 45.8407 453.771 43.2127 458.923 39.668L456.089 35.5488C450.981 39.0633 447.04 41.7937 444.149 44.0798C441.297 46.3343 439.185 48.3672 438.006 50.554C436.722 52.9375 436.661 55.2689 437.343 57.7398C437.975 60.0291 439.293 62.5968 440.845 65.5704L445.278 63.2579ZM440.78 111.574C447.102 103.005 450.769 95.5457 451.499 87.7742C452.232 79.9807 449.976 72.2639 445.278 63.2578L440.845 65.5705C445.323 74.1554 447.126 80.8653 446.521 87.3063C445.914 93.7693 442.845 100.352 436.756 108.606L440.78 111.574ZM432.456 132.133C432.3 131.534 432.269 130.481 432.541 128.933C432.806 127.43 433.322 125.649 434.072 123.7C435.573 119.803 437.934 115.431 440.78 111.574L436.756 108.605C433.649 112.817 431.07 117.582 429.406 121.904C428.573 124.066 427.951 126.165 427.617 128.066C427.29 129.922 427.2 131.795 427.619 133.398L432.456 132.133ZM399.116 152.633C409.796 154.066 418.903 152.937 425.03 149.454C428.129 147.692 430.529 145.286 431.874 142.26C433.223 139.221 433.41 135.777 432.456 132.133L427.619 133.398C428.33 136.117 428.126 138.379 427.304 140.23C426.476 142.094 424.923 143.763 422.559 145.107C417.762 147.834 409.91 149.036 399.781 147.678L399.116 152.633ZM389.642 153.553C388.046 151.768 387.168 150.673 386.819 150.015C386.63 149.66 386.836 149.861 386.758 150.359C386.638 151.128 386.076 151.473 385.941 151.532C385.911 151.545 386.119 151.462 386.799 151.431C387.431 151.403 388.291 151.425 389.433 151.508C391.717 151.675 394.877 152.065 399.116 152.633L399.781 147.678C395.558 147.111 392.254 146.701 389.797 146.522C388.568 146.432 387.487 146.395 386.574 146.436C385.709 146.475 384.768 146.59 383.951 146.945C383.027 147.346 382.038 148.176 381.818 149.59C381.64 150.732 382.072 151.736 382.401 152.358C383.088 153.653 384.414 155.207 385.913 156.885L389.642 153.553ZM384.092 189.889C392.259 186.081 397.518 180.97 398.492 174.316C399.449 167.773 396.089 160.769 389.642 153.553L385.913 156.885C392.048 163.75 394.175 169.285 393.544 173.592C392.93 177.788 389.527 181.838 381.979 185.357L384.092 189.889ZM361.645 230.396C361.645 211.821 370.589 196.185 384.092 189.889L381.979 185.357C366.319 192.659 356.645 210.356 356.645 230.396H361.645ZM354.899 250.204C356.812 247.588 358.48 244.102 359.671 240.618C360.857 237.145 361.645 233.453 361.645 230.396H356.645C356.645 232.711 356.023 235.829 354.939 239.002C353.859 242.163 352.395 245.158 350.863 247.253L354.899 250.204ZM330.276 254.895C336.887 256.923 341.587 258.049 345.388 257.393C349.523 256.679 352.136 253.983 354.899 250.204L350.863 247.253C348.233 250.85 346.629 252.104 344.537 252.465C342.11 252.885 338.57 252.21 331.743 250.115L330.276 254.895ZM302.854 263.566C302.854 259.575 305.486 256.313 310.496 254.505C315.533 252.688 322.629 252.548 330.276 254.895L331.743 250.115C323.298 247.523 315.066 247.541 308.799 249.802C302.504 252.073 297.854 256.812 297.854 263.566H302.854ZM271.173 274.401C277.743 275.997 285.341 275.484 291.325 273.725C294.319 272.844 297.064 271.608 299.118 270.035C301.13 268.494 302.854 266.32 302.854 263.566H297.854C297.854 264.078 297.526 264.956 296.078 266.065C294.671 267.143 292.549 268.153 289.915 268.928C284.644 270.477 277.947 270.901 272.354 269.542L271.173 274.401ZM242.932 308.109C243.95 295.778 247.547 286.372 252.59 280.588C257.536 274.913 263.912 272.636 271.173 274.401L272.354 269.542C263.133 267.302 254.893 270.337 248.821 277.302C242.844 284.158 239.021 294.721 237.949 307.698L242.932 308.109ZM221.675 338.506C225.892 337.065 229.292 335.848 231.967 334.494C234.693 333.114 236.827 331.514 238.415 329.223C239.98 326.966 240.867 324.249 241.488 320.902C242.106 317.569 242.496 313.389 242.932 308.109L237.949 307.698C237.51 313.02 237.136 316.947 236.572 319.99C236.01 323.019 235.295 324.948 234.306 326.375C233.34 327.768 231.969 328.889 229.708 330.034C227.396 331.204 224.326 332.316 220.059 333.775L221.675 338.506ZM52.7775 336.099C71.2328 343.877 103.113 347.983 135.314 348.435C167.546 348.887 200.668 345.685 221.675 338.506L220.059 333.775C199.859 340.677 167.413 343.885 135.384 343.435C103.323 342.985 72.2482 338.879 54.7192 331.492L52.7775 336.099ZM30.0291 326.513L52.7775 336.099L54.7192 331.492L31.9709 321.905L30.0291 326.513ZM45.5581 348.67L33.2523 323.124L28.7477 325.294L41.0535 350.84L45.5581 348.67ZM74.0638 382.818C62.1853 376.132 54.3439 366.908 45.558 348.67L41.0535 350.84C50.0983 369.615 58.5303 379.812 71.6114 387.175L74.0638 382.818ZM93.9264 417.636C93.3001 407.056 92.6714 400.471 89.8426 395.483C86.9592 390.398 81.9722 387.269 74.0639 382.818L71.6114 387.175C79.7317 391.745 83.4053 394.267 85.4933 397.949C87.636 401.727 88.2895 407.025 88.9351 417.931L93.9264 417.636ZM101.606 438.374C99.9191 438.374 98.9146 438.155 98.2361 437.791C97.6318 437.467 97.0326 436.893 96.4614 435.596C95.8629 434.238 95.3591 432.227 94.9404 429.23C94.525 426.258 94.2126 422.47 93.9264 417.636L88.9351 417.931C89.2233 422.798 89.5447 426.746 89.9885 429.922C90.4289 433.074 91.0093 435.623 91.8859 437.612C92.7898 439.664 94.0565 441.224 95.8745 442.198C97.6182 443.133 99.5924 443.374 101.606 443.374V438.374ZM112.914 449.549C112.914 446.297 111.991 443.406 109.89 441.337C107.794 439.273 104.88 438.374 101.606 438.374V443.374C104 443.374 105.49 444.021 106.381 444.899C107.267 445.772 107.914 447.219 107.914 449.549H112.914ZM87.3186 475.031C96.3887 475.031 103.113 473.825 107.405 469.554C111.701 465.279 112.914 458.578 112.914 449.549H107.914C107.914 458.498 106.613 463.289 103.878 466.01C101.14 468.735 96.3161 470.031 87.3186 470.031V475.031ZM72.2131 476.563C72.2131 477.082 71.9703 477.381 71.9311 477.425C71.9046 477.454 71.9822 477.363 72.2886 477.198C72.8977 476.869 73.9426 476.496 75.4429 476.152C78.4034 475.474 82.6092 475.031 87.3186 475.031V470.031C82.3452 470.031 77.7482 470.495 74.3267 471.278C72.6359 471.665 71.095 472.161 69.916 472.797C69.3283 473.113 68.7113 473.528 68.2138 474.081C67.7034 474.648 67.2131 475.489 67.2131 476.563H72.2131ZM60.1484 485.582C63.1679 484.822 65.9738 483.629 68.0838 482.261C69.1344 481.58 70.0947 480.803 70.8205 479.943C71.5141 479.122 72.2131 477.961 72.2131 476.563H67.2131C67.2131 476.273 67.3397 476.315 66.9998 476.718C66.6923 477.082 66.158 477.551 65.3644 478.065C63.7859 479.089 61.5041 480.084 58.9272 480.733L60.1484 485.582ZM40.5566 531.14C40.5566 521.45 43.2789 510.445 47.257 501.559C49.2428 497.124 51.5021 493.306 53.8153 490.483C56.177 487.601 58.3687 486.031 60.1488 485.582L58.9268 480.734C55.6109 481.569 52.5695 484.114 49.9479 487.314C47.2779 490.572 44.8039 494.802 42.6934 499.516C38.4789 508.93 35.5566 520.631 35.5566 531.14H40.5566ZM47.4829 533.885C45.3599 534.693 43.808 535.187 42.6612 535.407C41.4651 535.637 41.1086 535.485 41.095 535.478C41.0949 535.478 41.0957 535.479 41.0972 535.48C41.0986 535.481 41.1006 535.482 41.1028 535.483C41.1076 535.486 41.1119 535.49 41.1153 535.493C41.1234 535.5 41.1172 535.497 41.0995 535.471C41.0594 535.414 40.9671 535.254 40.8713 534.902C40.6684 534.158 40.5566 532.977 40.5566 531.14H35.5566C35.5566 533.054 35.6596 534.794 36.0473 536.217C36.4503 537.696 37.2584 539.162 38.8849 539.964C40.3752 540.698 42.0601 540.614 43.604 540.318C45.1972 540.012 47.084 539.386 49.2598 538.559L47.4829 533.885ZM83.5729 530.208C76.639 530.095 69.1703 530.439 62.7061 531.085C56.3304 531.722 50.6599 532.677 47.4829 533.885L49.2597 538.559C51.7561 537.61 56.8332 536.696 63.2033 536.06C69.4847 535.432 76.7598 535.097 83.491 535.208L83.5729 530.208ZM112.078 527.889C111.832 528.042 110.908 528.376 109.023 528.73C107.268 529.06 104.988 529.355 102.328 529.595C97.0138 530.074 90.3275 530.319 83.573 530.208L83.491 535.207C90.4017 535.321 97.2665 535.072 102.777 534.575C105.529 534.327 107.98 534.014 109.947 533.644C111.784 533.299 113.574 532.842 114.707 532.142L112.078 527.889ZM139.765 530.733C133.97 528.989 128.105 527.753 123.297 527.17C120.898 526.878 118.704 526.743 116.884 526.804C115.208 526.86 113.376 527.087 112.078 527.889L114.707 532.142C114.691 532.152 114.845 532.063 115.303 531.973C115.734 531.888 116.314 531.826 117.051 531.801C118.526 531.752 120.445 531.86 122.695 532.133C127.186 532.678 132.768 533.849 138.324 535.521L139.765 530.733ZM159.595 535.889C159.982 535.503 160.372 535.399 160.42 535.386C160.513 535.36 160.534 535.367 160.435 535.374C160.241 535.387 159.878 535.382 159.31 535.33C158.192 535.228 156.596 534.973 154.611 534.57C150.658 533.768 145.386 532.425 139.765 530.733L138.324 535.521C144.053 537.246 149.478 538.63 153.616 539.47C155.676 539.888 157.474 540.183 158.854 540.31C159.534 540.372 160.197 540.401 160.773 540.362C161.06 540.343 161.402 540.302 161.749 540.206C162.052 540.123 162.629 539.927 163.131 539.425L159.595 535.889ZM218.043 529.083C207.722 529.262 193.976 530.274 182.561 531.497C176.852 532.108 171.689 532.776 167.805 533.425C165.868 533.749 164.206 534.075 162.936 534.398C162.305 534.558 161.72 534.73 161.227 534.917C160.842 535.063 160.134 535.35 159.594 535.89L163.132 539.424C162.849 539.707 162.648 539.725 163.001 539.592C163.244 539.499 163.625 539.381 164.166 539.244C165.241 538.971 166.749 538.671 168.629 538.357C172.378 537.73 177.434 537.074 183.093 536.468C194.414 535.256 208.004 534.258 218.13 534.082L218.043 529.083ZM227.91 526.818C228.272 527.519 228.141 527.67 228.185 527.522C228.241 527.334 228.322 527.489 227.695 527.796C226.295 528.483 223.299 528.992 218.043 529.083L218.13 534.082C223.335 533.992 227.382 533.52 229.899 532.284C231.231 531.63 232.489 530.588 232.977 528.95C233.453 527.351 233.01 525.797 232.352 524.523L227.91 526.818ZM237.985 529.291C235.555 526.307 233.559 524.082 232.314 522.988C232.011 522.722 231.631 522.412 231.226 522.188C231.043 522.087 230.658 521.889 230.154 521.82C229.596 521.742 228.515 521.804 227.742 522.77C227.121 523.546 227.151 524.388 227.17 524.657C227.194 525.014 227.28 525.321 227.345 525.522C227.479 525.94 227.687 526.386 227.91 526.818L232.352 524.523C232.268 524.361 232.207 524.233 232.164 524.136C232.143 524.089 232.128 524.052 232.117 524.026C232.107 523.999 232.103 523.988 232.104 523.99C232.104 523.991 232.113 524.016 232.123 524.062C232.132 524.104 232.149 524.191 232.158 524.311C232.166 524.438 232.217 525.18 231.646 525.893C230.923 526.797 229.921 526.835 229.47 526.773C229.074 526.718 228.824 526.573 228.805 526.562C228.726 526.519 228.78 526.539 229.013 526.743C229.913 527.534 231.678 529.464 234.108 532.448L237.985 529.291ZM245.267 550.138C246.023 547.243 245.321 543.478 244.038 539.963C242.714 536.336 240.599 532.501 237.985 529.291L234.108 532.448C236.354 535.206 238.199 538.549 239.341 541.677C240.524 544.918 240.792 547.486 240.429 548.873L245.267 550.138ZM252.102 557.544C248.64 556.675 246.757 555.561 245.841 554.451C245.059 553.505 244.717 552.237 245.267 550.138L240.429 548.873C239.588 552.089 239.922 555.138 241.986 557.636C243.916 559.972 247.051 561.432 250.884 562.394L252.102 557.544ZM265.647 574.318C265.28 569.882 264.125 566.17 261.81 563.28C259.476 560.368 256.189 558.57 252.101 557.544L250.884 562.394C254.24 563.236 256.441 564.577 257.908 566.407C259.392 568.259 260.347 570.891 260.664 574.73L265.647 574.318ZM282.53 592.135C274.963 592.135 271.534 591.275 269.556 589.222C268.558 588.186 267.738 586.647 267.088 584.198C266.433 581.736 265.996 578.532 265.647 574.318L260.664 574.73C261.019 579.018 261.484 582.579 262.255 585.482C263.03 588.398 264.157 590.824 265.955 592.691C269.569 596.442 275.124 597.135 282.53 597.135V592.135Z" fill="#E93565"/>
</g>
<path d="M504.595 179.656C501.929 179.659 499.373 180.719 497.487 182.605C495.602 184.49 494.541 187.046 494.538 189.713C494.535 191.892 495.247 194.011 496.564 195.747C496.564 195.747 496.839 196.108 496.883 196.16L504.595 205.255L512.311 196.156C512.351 196.107 512.626 195.747 512.626 195.747L512.627 195.744C513.944 194.009 514.656 191.891 514.652 189.713C514.649 187.046 513.589 184.49 511.703 182.605C509.818 180.719 507.262 179.659 504.595 179.656ZM504.595 193.37C503.872 193.37 503.165 193.155 502.564 192.753C501.962 192.352 501.493 191.78 501.217 191.112C500.94 190.444 500.867 189.709 501.009 188.999C501.15 188.29 501.498 187.638 502.009 187.127C502.521 186.615 503.173 186.267 503.882 186.126C504.591 185.985 505.327 186.057 505.995 186.334C506.663 186.611 507.234 187.079 507.636 187.681C508.038 188.282 508.252 188.989 508.252 189.713C508.251 190.682 507.866 191.612 507.18 192.297C506.494 192.983 505.565 193.369 504.595 193.37Z" fill="#E93565"/>
<path d="M426.882 331.426C424.215 331.429 421.659 332.489 419.774 334.375C417.888 336.26 416.828 338.816 416.825 341.483C416.822 343.662 417.533 345.781 418.851 347.517C418.851 347.517 419.125 347.878 419.17 347.93L426.882 357.025L434.597 347.926C434.638 347.877 434.913 347.517 434.913 347.517L434.914 347.514C436.231 345.779 436.942 343.661 436.939 341.483C436.936 338.816 435.875 336.26 433.99 334.375C432.104 332.489 429.548 331.429 426.882 331.426ZM426.882 345.14C426.158 345.14 425.451 344.925 424.85 344.523C424.249 344.122 423.78 343.55 423.503 342.882C423.226 342.214 423.154 341.479 423.295 340.769C423.436 340.06 423.784 339.408 424.296 338.897C424.807 338.385 425.459 338.037 426.168 337.896C426.878 337.755 427.613 337.827 428.281 338.104C428.95 338.381 429.521 338.849 429.923 339.451C430.324 340.052 430.539 340.759 430.539 341.483C430.538 342.452 430.152 343.382 429.466 344.067C428.781 344.753 427.851 345.139 426.882 345.14Z" fill="#E93565"/>
<path d="M322.654 517.938C319.988 517.941 317.432 519.002 315.546 520.887C313.661 522.773 312.6 525.329 312.597 527.995C312.594 530.174 313.306 532.294 314.623 534.029C314.623 534.029 314.898 534.39 314.942 534.443L322.654 543.538L330.37 534.438C330.41 534.39 330.685 534.029 330.685 534.029L330.686 534.027C332.003 532.292 332.715 530.173 332.711 527.995C332.708 525.329 331.648 522.773 329.762 520.887C327.877 519.002 325.321 517.941 322.654 517.938ZM322.654 531.652C321.931 531.652 321.224 531.438 320.623 531.036C320.021 530.634 319.552 530.063 319.276 529.395C318.999 528.726 318.926 527.991 319.068 527.282C319.209 526.572 319.557 525.921 320.068 525.409C320.58 524.898 321.231 524.549 321.941 524.408C322.65 524.267 323.386 524.34 324.054 524.616C324.722 524.893 325.293 525.362 325.695 525.963C326.097 526.565 326.311 527.272 326.311 527.995C326.31 528.965 325.925 529.894 325.239 530.58C324.553 531.265 323.624 531.651 322.654 531.652Z" fill="#E93565"/>
<path d="M283.341 333.254C280.674 333.257 278.118 334.318 276.233 336.203C274.347 338.089 273.287 340.645 273.283 343.311C273.28 345.49 273.992 347.61 275.309 349.345C275.309 349.345 275.584 349.707 275.629 349.759L283.341 358.854L291.056 349.754C291.096 349.706 291.372 349.345 291.372 349.345L291.372 349.343C292.689 347.608 293.401 345.489 293.398 343.311C293.394 340.645 292.334 338.089 290.448 336.203C288.563 334.318 286.007 333.257 283.341 333.254ZM283.341 346.968C282.617 346.968 281.91 346.754 281.309 346.352C280.707 345.95 280.239 345.379 279.962 344.711C279.685 344.042 279.613 343.307 279.754 342.598C279.895 341.888 280.243 341.237 280.755 340.725C281.266 340.214 281.918 339.865 282.627 339.724C283.336 339.583 284.072 339.656 284.74 339.932C285.408 340.209 285.979 340.678 286.381 341.279C286.783 341.881 286.998 342.588 286.998 343.311C286.996 344.281 286.611 345.21 285.925 345.896C285.24 346.581 284.31 346.967 283.341 346.968Z" fill="#E93565"/>
<path d="M500.024 101.028C497.358 101.031 494.802 102.092 492.916 103.977C491.031 105.862 489.97 108.418 489.967 111.085C489.964 113.264 490.676 115.384 491.993 117.119C491.993 117.119 492.267 117.48 492.312 117.532L500.024 126.628L507.74 117.528C507.78 117.479 508.055 117.119 508.055 117.119L508.056 117.116C509.373 115.382 510.084 113.263 510.081 111.085C510.078 108.418 509.017 105.862 507.132 103.977C505.247 102.092 502.69 101.031 500.024 101.028ZM500.024 114.742C499.301 114.742 498.594 114.527 497.992 114.126C497.391 113.724 496.922 113.153 496.645 112.484C496.369 111.816 496.296 111.081 496.437 110.371C496.578 109.662 496.927 109.01 497.438 108.499C497.95 107.987 498.601 107.639 499.311 107.498C500.02 107.357 500.755 107.429 501.424 107.706C502.092 107.983 502.663 108.452 503.065 109.053C503.467 109.654 503.681 110.362 503.681 111.085C503.68 112.054 503.294 112.984 502.609 113.669C501.923 114.355 500.994 114.741 500.024 114.742Z" fill="#E93565"/>
<defs>
<filter id="filter0_d_3_214" x="0.87854" y="0.500031" width="755.621" height="651.04" filterUnits="userSpaceOnUse" color-interpolation-filters="sRGB">
<feFlood flood-opacity="0" result="BackgroundImageFix"/>
<feColorMatrix in="SourceAlpha" type="matrix" values="0 0 0 0 0 0 0 0 0 0 0 0 0 0 0 0 0 0 127 0" result="hardAlpha"/>
<feOffset dy="12"/>
<feGaussianBlur stdDeviation="12.5"/>
<feComposite in2="hardAlpha" operator="out"/>
<feColorMatrix type="matrix" values="0 0 0 0 0.0627451 0 0 0 0 0.137255 0 0 0 0 0.258824 0 0 0 0.3 0"/>
<feBlend mode="normal" in2="BackgroundImageFix" result="effect1_dropShadow_3_214"/>
<feBlend mode="normal" in="SourceGraphic" in2="effect1_dropShadow_3_214" result="shape"/>
</filter>
</defs>
</svg>
