<svg width="318" height="744" viewBox="0 0 318 744" fill="none" xmlns="http://www.w3.org/2000/svg">
<path fill-rule="evenodd" clip-rule="evenodd" d="M46.7731 550.453C21.9892 483.686 -22.275 408.935 13.8844 347.58C49.9796 286.333 139.977 302.03 207.056 278.484C285.093 251.091 363.037 155.934 432.657 200.58C502.918 245.638 443.859 357.92 458.937 440.014C471.625 509.091 540.226 570.933 512.536 635.476C483.909 702.204 402.067 726.849 330.535 739.312C265.612 750.624 199.413 736.104 144.553 699.592C93.1082 665.352 68.2785 608.387 46.7731 550.453Z" fill="url(#paint0_linear_1_212)" fill-opacity="0.5"/>
<path fill-rule="evenodd" clip-rule="evenodd" d="M490.827 489.751C419.706 493.452 335.142 513.356 287.396 460.514C239.734 407.767 281.607 326.572 279.181 255.522C276.359 172.865 208.84 70.0466 272.251 16.9494C336.245 -36.637 425.749 53.276 508.598 63.4179C578.31 71.9516 657.826 24.9647 711.146 70.6764C766.271 117.935 765.333 203.402 755.851 275.39C747.246 340.726 713.608 399.562 662.37 441.005C614.323 479.868 552.541 486.54 490.827 489.751Z" fill="url(#paint1_linear_1_212)" fill-opacity="0.5"/>
<defs>
<linearGradient id="paint0_linear_1_212" x1="35.413" y1="551.297" x2="512.026" y2="423.589" gradientUnits="userSpaceOnUse">
<stop stop-color="#E93565"/>
<stop offset="1" stop-color="#BC2B5D"/>
</linearGradient>
<linearGradient id="paint1_linear_1_212" x1="488.239" y1="500.845" x2="508.788" y2="7.84725" gradientUnits="userSpaceOnUse">
<stop stop-color="#E93565"/>
<stop offset="1" stop-color="#BC2B5D"/>
</linearGradient>
</defs>
</svg>
